<svg id="Logo" xmlns="http://www.w3.org/2000/svg" xmlns:xlink="http://www.w3.org/1999/xlink" width="389" height="238" viewBox="0 0 389 238">
  <metadata><?xpacket begin="﻿" id="W5M0MpCehiHzreSzNTczkc9d"?>
<x:xmpmeta xmlns:x="adobe:ns:meta/" x:xmptk="Adobe XMP Core 5.6-c138 79.159824, 2016/09/14-01:09:01        ">
   <rdf:RDF xmlns:rdf="http://www.w3.org/1999/02/22-rdf-syntax-ns#">
      <rdf:Description rdf:about=""/>
   </rdf:RDF>
</x:xmpmeta>
                                                                                                    
                                                                                                    
                                                                                                    
                                                                                                    
                                                                                                    
                                                                                                    
                                                                                                    
                                                                                                    
                                                                                                    
                                                                                                    
                                                                                                    
                                                                                                    
                                                                                                    
                                                                                                    
                                                                                                    
                                                                                                    
                                                                                                    
                                                                                                    
                                                                                                    
                                                                                                    
                           
<?xpacket end="w"?></metadata>
<defs>
    <style>
      .cls-1 {
        fill: #fff;
        filter: url(#filter);
      }

      .cls-1, .cls-2, .cls-3 {
        fill-rule: evenodd;
      }

      .cls-2 {
        fill: #e0d7bb;
        filter: url(#filter-2);
      }

      .cls-3 {
        fill: #bea68a;
        filter: url(#filter-3);
      }
    </style>
    <filter id="filter" x="1" y="182" width="389" height="58" filterUnits="userSpaceOnUse">
      <feOffset result="offset" dx="1" dy="1.732" in="SourceAlpha"/>
      <feGaussianBlur result="blur" stdDeviation="2.236"/>
      <feFlood result="flood" flood-color="#010101" flood-opacity="0.66"/>
      <feComposite result="composite" operator="in" in2="blur"/>
      <feBlend result="blend" in="SourceGraphic"/>
    </filter>
    <filter id="filter-2" x="158" y="27" width="104" height="122" filterUnits="userSpaceOnUse">
      <feOffset result="offset" dx="1" dy="1.732" in="SourceAlpha"/>
      <feGaussianBlur result="blur" stdDeviation="2.236"/>
      <feFlood result="flood" flood-color="#010101" flood-opacity="0.42"/>
      <feComposite result="composite" operator="in" in2="blur"/>
      <feBlend result="blend" in="SourceGraphic"/>
    </filter>
    <filter id="filter-3" x="96" y="0" width="61" height="173" filterUnits="userSpaceOnUse">
      <feOffset result="offset" dx="1" dy="1.732" in="SourceAlpha"/>
      <feGaussianBlur result="blur" stdDeviation="2.236"/>
      <feFlood result="flood" flood-color="#010101" flood-opacity="0.42"/>
      <feComposite result="composite" operator="in" in2="blur"/>
      <feBlend result="blend" in="SourceGraphic"/>
    </filter>
  </defs>
  <path id="Text" class="cls-1" d="M4.086,187.645h2.07a5.325,5.325,0,0,1,2.318.434,9.949,9.949,0,0,1,2.2,2l0.545,0.6v31.053A6.952,6.952,0,0,1,9.295,226.7a7.236,7.236,0,0,1-5.209,2.152v2.325H21.572v-2.325q-3.969-.061-5.86-1.908t-1.891-5.6V193.667l28.617,37.507h2.914v-36.43a8.647,8.647,0,0,1,.9-3.937,5.6,5.6,0,0,1,2.118-2.48,7.728,7.728,0,0,1,3.676-.682v-2.326H35.989v2.326a6.616,6.616,0,0,1,4.9,1.8q1.8,1.891,1.8,5.829v26.074L15.031,185.319H4.086v2.326Zm76.2,41.328a2.05,2.05,0,0,1-1.767-1.023,5.559,5.559,0,0,1-.682-3.1V208.975a6.9,6.9,0,0,0-2.728-5.487q-2.729-2.233-7.906-2.233a14.941,14.941,0,0,0-9.069,2.543q-3.458,2.542-3.457,5.611a3.681,3.681,0,0,0,1.039,2.7,3.485,3.485,0,0,0,2.589,1.054,3.218,3.218,0,0,0,2.356-.884,3.055,3.055,0,0,0,.9-2.279,3.925,3.925,0,0,0-.9-2.2,3.029,3.029,0,0,1-.744-1.457,2.266,2.266,0,0,1,1.4-1.643,9.222,9.222,0,0,1,4.651-1.116,6.983,6.983,0,0,1,4.806,1.674,5.2,5.2,0,0,1,1.891,4.03v4.4q-8.836.993-14.153,3.984t-5.317,7.518a6.109,6.109,0,0,0,2.325,4.93q2.325,1.922,6.79,1.922A12.643,12.643,0,0,0,67.663,231a18.655,18.655,0,0,0,5.178-4.139,9.226,9.226,0,0,0,2.527,4.03,5.521,5.521,0,0,0,3.55,1.147,6.883,6.883,0,0,0,5.023-2.325l-1.116-1.736a4.318,4.318,0,0,1-2.542.992h0Zm-7.627-9.084a9.616,9.616,0,0,1-2.682,6.96,8.529,8.529,0,0,1-6.34,2.775,4.35,4.35,0,0,1-3.318-1.349,5.228,5.228,0,0,1-1.271-3.736,6.229,6.229,0,0,1,2.449-5.27q3.286-2.45,11.161-3.535v4.155Zm17.013-19.967a8.127,8.127,0,0,1-5.26,2.884v2.17h5.054v19.5a6.863,6.863,0,0,0,2.031,5.162,7.742,7.742,0,0,0,5.627,1.969,8.041,8.041,0,0,0,6.356-2.806q2.448-2.805,2.635-8.6h-2.077q-0.249,4.5-1.736,6.449a4.406,4.406,0,0,1-3.6,1.953,3.732,3.732,0,0,1-2.914-1.287,5.39,5.39,0,0,1-1.147-3.7V204.976h9.394v-2.853H94.639V190.28H92.561q-0.218,6.2-2.895,9.642h0Zm18.971,2.2v2.171a8.058,8.058,0,0,1,3.813.682,2.845,2.845,0,0,1,1.333,2.542v12.619q0,6.231,2.693,8.836a9,9,0,0,0,6.594,2.635,10.383,10.383,0,0,0,5.324-1.55,21.042,21.042,0,0,0,5.232-4.62l0.62,5.705,9.766-.217v-2.077h-1.829a3.634,3.634,0,0,1-2.6-.884,3.319,3.319,0,0,1-.93-2.527V201.6l-10.2.527v2.171q3.037,0.093,4.108.914a2.746,2.746,0,0,1,1.07,2.31V218.4a10.349,10.349,0,0,1-2.429,7.023,7.521,7.521,0,0,1-5.894,2.806,5.974,5.974,0,0,1-4.594-1.923,7.737,7.737,0,0,1-1.779-5.456V201.6Zm38.661,2.2h2.543a3.323,3.323,0,0,1,2.573.976,4.457,4.457,0,0,1,.9,3.085V226.9a1.7,1.7,0,0,1-.744,1.379,3.56,3.56,0,0,1-2.2.574h-2.884v2.325H165.53v-2.325h-3.69a4.36,4.36,0,0,1-2.542-.558,1.893,1.893,0,0,1-.744-1.612v-6.232a30.653,30.653,0,0,1,1.86-9.022,13.389,13.389,0,0,1,3.442-5.705,4.559,4.559,0,0,1,2.883-1.488,0.474,0.474,0,0,1,.589.465,3.667,3.667,0,0,1-.465.961,3.916,3.916,0,0,0-.5,1.922,3.574,3.574,0,0,0,.852,2.511,2.9,2.9,0,0,0,2.248.931,3.015,3.015,0,0,0,2.372-1.086,4.477,4.477,0,0,0,.946-3.038,5.283,5.283,0,0,0-1.411-3.86,5.032,5.032,0,0,0-3.767-1.442,7.17,7.17,0,0,0-5.829,2.977,25.8,25.8,0,0,0-4.03,8.774V201.6l-10.449.527v2.2Zm56.8,24.648a2.052,2.052,0,0,1-1.768-1.023,5.566,5.566,0,0,1-.682-3.1V208.975a6.894,6.894,0,0,0-2.728-5.487q-2.728-2.233-7.906-2.233a14.944,14.944,0,0,0-9.069,2.543q-3.458,2.542-3.457,5.611a3.681,3.681,0,0,0,1.039,2.7,3.485,3.485,0,0,0,2.589,1.054,3.219,3.219,0,0,0,2.356-.884,3.056,3.056,0,0,0,.9-2.279,3.926,3.926,0,0,0-.9-2.2,3.029,3.029,0,0,1-.744-1.457,2.266,2.266,0,0,1,1.395-1.643,9.224,9.224,0,0,1,4.651-1.116,6.982,6.982,0,0,1,4.805,1.674,5.2,5.2,0,0,1,1.892,4.03v4.4q-8.837.993-14.154,3.984T177,225.19a6.11,6.11,0,0,0,2.325,4.93q2.327,1.922,6.79,1.922A12.642,12.642,0,0,0,191.48,231a18.66,18.66,0,0,0,5.178-4.139,9.224,9.224,0,0,0,2.526,4.03,5.524,5.524,0,0,0,3.55,1.147,6.883,6.883,0,0,0,5.023-2.325l-1.116-1.736a4.317,4.317,0,0,1-2.542.992h0Zm-7.627-9.084a9.618,9.618,0,0,1-2.682,6.96,8.53,8.53,0,0,1-6.34,2.775,4.35,4.35,0,0,1-3.318-1.349,5.227,5.227,0,0,1-1.271-3.736,6.228,6.228,0,0,1,2.449-5.27q3.286-2.45,11.162-3.535v4.155Zm12.992-34.57v2.326h2.6a4.159,4.159,0,0,1,2.821.992,2.816,2.816,0,0,1,.837,2.263v35.344a2.568,2.568,0,0,1-.7,1.923,2.931,2.931,0,0,1-2.124.682h-2.914v2.325h16.463v-2.325h-3.07a2.932,2.932,0,0,1-1.891-.62,1.682,1.682,0,0,1-.527-1.333v-42.1Zm38.258,2.326H252.4a2.853,2.853,0,0,1,1.891.573,1.9,1.9,0,0,1,.682,1.535v36.926a2.015,2.015,0,0,1-.635,1.643,3.672,3.672,0,0,1-2.279.527h-4.341v2.325h21.207a29,29,0,0,0,8.681-1.054,19.364,19.364,0,0,0,7.364-4.279,17.8,17.8,0,0,0,4.48-6.665,30.7,30.7,0,0,0,1.922-11.162,25.28,25.28,0,0,0-3.209-12.99,17.573,17.573,0,0,0-16.758-9.705H247.722v2.326Zm21.827,0q6.884,0,10.293,4.495,4,5.333,4,16.8,0,7.752-1.829,12.154a11.114,11.114,0,0,1-3.907,5.053,15.835,15.835,0,0,1-9.177,2.7h-3.906a4.558,4.558,0,0,1-2.636-.574,1.967,1.967,0,0,1-.775-1.689V190a2.234,2.234,0,0,1,.667-1.767,3.046,3.046,0,0,1,2.061-.589h5.209Zm31.469,17.889q-3.937,4.278-3.937,11.13a15.783,15.783,0,0,0,3.922,11.1,12.486,12.486,0,0,0,9.564,4.278,13.739,13.739,0,0,0,7.116-1.953,13.308,13.308,0,0,0,5.084-5.317,17.179,17.179,0,0,0,1.783-8.139q0-6.914-3.984-11.146a12.981,12.981,0,0,0-9.844-4.232A12.667,12.667,0,0,0,301.018,205.534Zm15.611,0.93q2.215,3.007,2.216,9.735,0,7.255-2.247,10.449a6.884,6.884,0,0,1-5.876,3.193,6.7,6.7,0,0,1-5.72-3.193q-2.217-3.193-2.217-10.108,0-6.789,2.233-9.937a6.74,6.74,0,0,1,5.7-3.146A6.979,6.979,0,0,1,316.629,206.464Zm27.731,22.912a7.662,7.662,0,0,1-6.324-3.205q-2.481-3.206-2.481-9.43,0-6.534,2.791-10.528a6.581,6.581,0,0,1,5.735-2.756,5.63,5.63,0,0,1,3.287.849,2.293,2.293,0,0,1,1.209,1.746,1.69,1.69,0,0,1-.5.927,3.956,3.956,0,0,0-1.054,2.6,3.15,3.15,0,0,0,.961,2.318,3.309,3.309,0,0,0,4.821-.174,4.078,4.078,0,0,0,1.039-2.868,6.81,6.81,0,0,0-2.791-5.239,10.576,10.576,0,0,0-7.069-2.357,13.553,13.553,0,0,0-9.921,4.232q-4.217,4.233-4.216,11.921,0,6.636,3.844,10.635a13.114,13.114,0,0,0,9.89,4q8.247,0,10.666-8.9l-2.016-.589q-2.574,6.82-7.875,6.821h0Zm15.92-9.146,0.621,11.564h1.645l2.267-2.6a12.836,12.836,0,0,0,8.01,2.852,11.2,11.2,0,0,0,7.683-2.665,8.347,8.347,0,0,0,3.027-6.507,7.863,7.863,0,0,0-1.4-4.725,8.156,8.156,0,0,0-3.942-2.867,44.752,44.752,0,0,0-6.709-1.463q-4.442-.716-5.963-1.956a3.7,3.7,0,0,1-1.553-3.038,4.475,4.475,0,0,1,1.677-3.52,6.873,6.873,0,0,1,4.629-1.441,8.69,8.69,0,0,1,5.747,1.937,13.1,13.1,0,0,1,3.7,6.341H381.8l-0.807-10.356h-1.273l-2.05,2.171a11.559,11.559,0,0,0-7.017-2.388,9.506,9.506,0,0,0-7.731,3.318,8.9,8.9,0,0,0-2.143,5.8,7.669,7.669,0,0,0,1.04,3.906,7.392,7.392,0,0,0,2.9,2.821,25.218,25.218,0,0,0,6.584,1.954,44.416,44.416,0,0,1,6.12,1.41,4.017,4.017,0,0,1,1.848,1.457,3.943,3.943,0,0,1,.668,2.279,4.608,4.608,0,0,1-1.814,3.736,8.053,8.053,0,0,1-5.193,1.473,9.338,9.338,0,0,1-6.154-2.062q-2.5-2.061-4.419-7.425H360.28Z"/>
  <g id="Acorn">
    <path id="D" class="cls-2" d="M196.663,141.877q20.959,0,32.583-6.1t18.9-18.9q7.278-12.8,7.279-29.649,0-19.511-9.184-33.612a48.807,48.807,0,0,0-25.5-19.817q-11.358-4.039-36.509-4.04H160.993V141.877h35.67ZM171.74,40.736h7.926q24.161,0,34.679,3.2A39.535,39.535,0,0,1,236.22,59.7q7.85,11.5,7.85,27.719,0,15.459-7.24,26.16a37.183,37.183,0,0,1-19.893,14.811q-8.994,2.894-32.24,2.894H171.74V40.736Z"/>
    <path id="_" data-name="{" class="cls-3" d="M116.54,81.873c8.112-2.511,12.361-8.5,12.361-15.837,0-11.395-3.67-20.278-3.67-32.639,0-14.1,6.76-22.6,24.721-22.789,0.193-2.511.193-5.6,0.193-8.111-25.3.193-38.047,12.747-38.047,32.446,0,13.133,4.442,22.789,4.442,32.252,0,6.373-2.51,11.781-16.8,11.781,0,2.7,0,5.794.193,8.3,14.292-.386,16.609,6.18,16.609,13.326,0,10.236-4.828,20.665-4.828,34.184,0,17.961,14.678,30.9,37.853,30.9a56.936,56.936,0,0,0-.193-8.111c-16.416.193-24.527-9.077-24.527-22.4,0-12.94,3.862-21.437,3.862-35.342,0-7.339-4.055-14.291-12.167-16.8V81.873Z"/>
  </g>
</svg>
