<svg id="Acorn_bigger" data-name="Acorn bigger" xmlns="http://www.w3.org/2000/svg" width="221" height="219" viewBox="0 0 221 219">
  <metadata><?xpacket begin="﻿" id="W5M0MpCehiHzreSzNTczkc9d"?>
<x:xmpmeta xmlns:x="adobe:ns:meta/" x:xmptk="Adobe XMP Core 5.6-c138 79.159824, 2016/09/14-01:09:01        ">
   <rdf:RDF xmlns:rdf="http://www.w3.org/1999/02/22-rdf-syntax-ns#">
      <rdf:Description rdf:about=""/>
   </rdf:RDF>
</x:xmpmeta>
                                                                                                    
                                                                                                    
                                                                                                    
                                                                                                    
                                                                                                    
                                                                                                    
                                                                                                    
                                                                                                    
                                                                                                    
                                                                                                    
                                                                                                    
                                                                                                    
                                                                                                    
                                                                                                    
                                                                                                    
                                                                                                    
                                                                                                    
                                                                                                    
                                                                                                    
                                                                                                    
                           
<?xpacket end="w"?></metadata>
<defs>
    <style>
      .cls-1 {
        fill: #939393;
        fill-rule: evenodd;
      }
    </style>
  </defs>
  <path id="D_copy" data-name="D copy" class="cls-1" d="M137.606,195.709q29.714,0,46.192-9.123t26.8-28.284q10.317-19.16,10.319-44.363,0-29.194-13.02-50.294A69.871,69.871,0,0,0,171.75,33.993q-16.1-6.044-51.756-6.044H87.039v167.76h50.567ZM102.274,44.371h11.237q34.251,0,49.163,4.786a56.3,56.3,0,0,1,31.01,23.588q11.129,17.206,11.13,41.477,0,23.132-10.265,39.143a53.068,53.068,0,0,1-28.2,22.162q-12.752,4.331-45.706,4.33H102.274V44.371Z"/>
  <path id="_copy" data-name="{ copy" class="cls-1" d="M24.021,105.924c11.5-3.757,17.523-12.715,17.523-23.7,0-17.05-5.2-30.343-5.2-48.837,0-21.1,9.583-33.811,35.045-34.1,0.274-3.757.274-8.38,0.274-12.137C35.794-12.557,17.724,6.226,17.724,35.7c0,19.651,6.3,34.1,6.3,48.259,0,9.536-3.559,17.628-23.82,17.628,0,4.046,0,8.669.274,12.426,20.26-.578,23.546,9.248,23.546,19.94,0,15.316-6.845,30.92-6.845,51.149,0,26.875,20.808,46.237,53.663,46.237a89.87,89.87,0,0,0-.274-12.138c-23.272.289-34.771-13.582-34.771-33.521,0-19.362,5.476-32.077,5.476-52.883,0-10.981-5.75-21.385-17.249-25.141v-1.734Z"/>
</svg>
