<svg id="Heading" xmlns="http://www.w3.org/2000/svg" xmlns:xlink="http://www.w3.org/1999/xlink" width="347" height="75" viewBox="0 0 347 75">
  <metadata><?xpacket begin="﻿" id="W5M0MpCehiHzreSzNTczkc9d"?>
<x:xmpmeta xmlns:x="adobe:ns:meta/" x:xmptk="Adobe XMP Core 5.6-c138 79.159824, 2016/09/14-01:09:01        ">
   <rdf:RDF xmlns:rdf="http://www.w3.org/1999/02/22-rdf-syntax-ns#">
      <rdf:Description rdf:about=""/>
   </rdf:RDF>
</x:xmpmeta>
                                                                                                    
                                                                                                    
                                                                                                    
                                                                                                    
                                                                                                    
                                                                                                    
                                                                                                    
                                                                                                    
                                                                                                    
                                                                                                    
                                                                                                    
                                                                                                    
                                                                                                    
                                                                                                    
                                                                                                    
                                                                                                    
                                                                                                    
                                                                                                    
                                                                                                    
                                                                                                    
                           
<?xpacket end="w"?></metadata>
<defs>
    <style>
      .cls-1 {
        fill: #fff;
        filter: url(#filter);
      }

      .cls-1, .cls-2, .cls-3 {
        fill-rule: evenodd;
      }

      .cls-2 {
        fill: #e5d9b6;
        filter: url(#filter-2);
      }

      .cls-3 {
        fill: #c5a683;
        filter: url(#filter-3);
      }
    </style>
    <filter id="filter" x="105" y="20" width="241" height="39" filterUnits="userSpaceOnUse">
      <feOffset result="offset" dx="1" dy="1.732" in="SourceAlpha"/>
      <feGaussianBlur result="blur" stdDeviation="2.236"/>
      <feFlood result="flood" flood-color="#010101" flood-opacity="0.66"/>
      <feComposite result="composite" operator="in" in2="blur"/>
      <feBlend result="blend" in="SourceGraphic"/>
    </filter>
    <filter id="filter-2" x="30" y="18" width="38" height="44" filterUnits="userSpaceOnUse">
      <feOffset result="offset" dx="1" dy="1.732" in="SourceAlpha"/>
      <feGaussianBlur result="blur" stdDeviation="2"/>
      <feFlood result="flood" flood-color="#010101" flood-opacity="0.35"/>
      <feComposite result="composite" operator="in" in2="blur"/>
      <feBlend result="blend" in="SourceGraphic"/>
    </filter>
    <filter id="filter-3" x="10" y="9" width="24" height="60" filterUnits="userSpaceOnUse">
      <feOffset result="offset" dx="1" dy="1.732" in="SourceAlpha"/>
      <feGaussianBlur result="blur" stdDeviation="2"/>
      <feFlood result="flood" flood-color="#010101" flood-opacity="0.35"/>
      <feComposite result="composite" operator="in" in2="blur"/>
      <feBlend result="blend" in="SourceGraphic"/>
    </filter>
  </defs>
  <path id="Text" class="cls-1" d="M108.732,24.613h1.259a3.247,3.247,0,0,1,1.41.264,6.078,6.078,0,0,1,1.337,1.215l0.331,0.364V45.341a4.228,4.228,0,0,1-1.169,3.022,4.4,4.4,0,0,1-3.168,1.309v1.414h10.635V49.672a5.054,5.054,0,0,1-3.564-1.16,4.562,4.562,0,0,1-1.15-3.406V28.275l17.4,22.811h1.773V28.931a5.262,5.262,0,0,1,.549-2.395,3.4,3.4,0,0,1,1.288-1.508,4.708,4.708,0,0,1,2.236-.415V23.2h-9.768v1.414a4.03,4.03,0,0,1,2.98,1.094,4.994,4.994,0,0,1,1.093,3.545V45.109L115.388,23.2h-6.656v1.414Zm46.339,25.134A1.248,1.248,0,0,1,154,49.125a3.384,3.384,0,0,1-.414-1.886V37.585a4.2,4.2,0,0,0-1.66-3.337,7.429,7.429,0,0,0-4.808-1.358,9.09,9.09,0,0,0-5.515,1.546,4.307,4.307,0,0,0-2.1,3.413,2.239,2.239,0,0,0,.631,1.64,2.121,2.121,0,0,0,1.575.641,1.959,1.959,0,0,0,1.433-.537,1.861,1.861,0,0,0,.547-1.386,2.39,2.39,0,0,0-.547-1.339,1.843,1.843,0,0,1-.453-0.886,1.378,1.378,0,0,1,.849-1,5.606,5.606,0,0,1,2.828-.679,4.248,4.248,0,0,1,2.923,1.018,3.165,3.165,0,0,1,1.15,2.451v2.678a22.854,22.854,0,0,0-8.608,2.423q-3.234,1.82-3.233,4.572a3.714,3.714,0,0,0,1.414,3,6.341,6.341,0,0,0,4.129,1.169,7.684,7.684,0,0,0,3.262-.632,11.333,11.333,0,0,0,3.149-2.517,5.61,5.61,0,0,0,1.537,2.451,3.358,3.358,0,0,0,2.159.7A4.186,4.186,0,0,0,157.3,50.2l-0.679-1.056a2.622,2.622,0,0,1-1.546.6h0Zm-4.638-5.525a5.849,5.849,0,0,1-1.631,4.233,5.188,5.188,0,0,1-3.856,1.688,2.647,2.647,0,0,1-2.018-.82,3.182,3.182,0,0,1-.773-2.272,3.789,3.789,0,0,1,1.49-3.205q2-1.489,6.788-2.149v2.527ZM160.779,32.08a4.941,4.941,0,0,1-3.2,1.753v1.32h3.074v11.86a4.173,4.173,0,0,0,1.235,3.139,4.708,4.708,0,0,0,3.422,1.2,4.893,4.893,0,0,0,3.866-1.706,8.219,8.219,0,0,0,1.6-5.232h-1.263a7.267,7.267,0,0,1-1.056,3.922,2.679,2.679,0,0,1-2.187,1.188,2.27,2.27,0,0,1-1.773-.782,3.279,3.279,0,0,1-.7-2.253V35.153h5.713V33.418H163.8v-7.2h-1.264a9.941,9.941,0,0,1-1.76,5.864h0Zm11.537,1.339v1.32a4.9,4.9,0,0,1,2.319.415,1.729,1.729,0,0,1,.811,1.546v7.674q0,3.79,1.638,5.374a5.476,5.476,0,0,0,4.01,1.6,6.316,6.316,0,0,0,3.238-.943,12.812,12.812,0,0,0,3.182-2.809l0.377,3.469,5.939-.132V49.672h-1.112a2.208,2.208,0,0,1-1.584-.537,2.019,2.019,0,0,1-.566-1.537V33.1l-6.2.32v1.32a4.614,4.614,0,0,1,2.5.556,1.669,1.669,0,0,1,.651,1.4v6.618a6.3,6.3,0,0,1-1.477,4.271,4.575,4.575,0,0,1-3.585,1.706,3.633,3.633,0,0,1-2.794-1.169,4.708,4.708,0,0,1-1.082-3.318V33.1Zm23.513,1.339h1.546a2.021,2.021,0,0,1,1.565.594,2.712,2.712,0,0,1,.547,1.876V48.484a1.032,1.032,0,0,1-.453.839,2.164,2.164,0,0,1-1.338.349h-1.754v1.414h10.974V49.672h-2.244a2.652,2.652,0,0,1-1.546-.339,1.15,1.15,0,0,1-.453-0.98v-3.79a18.654,18.654,0,0,1,1.132-5.487,8.147,8.147,0,0,1,2.093-3.469,2.773,2.773,0,0,1,1.753-.905,0.288,0.288,0,0,1,.358.283,2.228,2.228,0,0,1-.282.585,2.375,2.375,0,0,0-.3,1.169,2.176,2.176,0,0,0,.518,1.527,1.768,1.768,0,0,0,1.367.566,1.834,1.834,0,0,0,1.443-.66,2.724,2.724,0,0,0,.575-1.848,3.212,3.212,0,0,0-.858-2.348,3.06,3.06,0,0,0-2.291-.877,4.361,4.361,0,0,0-3.545,1.81,15.7,15.7,0,0,0-2.451,5.336V33.1l-6.354.32v1.339Zm34.543,14.99a1.247,1.247,0,0,1-1.075-.622,3.383,3.383,0,0,1-.415-1.886V37.585a4.194,4.194,0,0,0-1.659-3.337,7.429,7.429,0,0,0-4.808-1.358,9.088,9.088,0,0,0-5.515,1.546,4.309,4.309,0,0,0-2.1,3.413,2.239,2.239,0,0,0,.632,1.64,2.12,2.12,0,0,0,1.574.641,1.956,1.956,0,0,0,1.433-.537,1.857,1.857,0,0,0,.547-1.386,2.383,2.383,0,0,0-.547-1.339,1.848,1.848,0,0,1-.452-0.886,1.379,1.379,0,0,1,.848-1,5.61,5.61,0,0,1,2.829-.679,4.246,4.246,0,0,1,2.922,1.018,3.161,3.161,0,0,1,1.15,2.451v2.678a22.854,22.854,0,0,0-8.607,2.423q-3.234,1.82-3.234,4.572a3.717,3.717,0,0,0,1.414,3,6.344,6.344,0,0,0,4.13,1.169,7.688,7.688,0,0,0,3.262-.632,11.347,11.347,0,0,0,3.149-2.517,5.61,5.61,0,0,0,1.536,2.451,3.36,3.36,0,0,0,2.159.7A4.187,4.187,0,0,0,232.6,50.2l-0.679-1.056a2.625,2.625,0,0,1-1.546.6h0Zm-4.639-5.525a5.844,5.844,0,0,1-1.631,4.233,5.185,5.185,0,0,1-3.855,1.688,2.645,2.645,0,0,1-2.018-.82,3.178,3.178,0,0,1-.773-2.272,3.787,3.787,0,0,1,1.49-3.205q2-1.489,6.787-2.149v2.527Zm7.9-21.024v1.414h1.583a2.531,2.531,0,0,1,1.716.6,1.711,1.711,0,0,1,.509,1.376v21.5a1.559,1.559,0,0,1-.424,1.169,1.78,1.78,0,0,1-1.291.415h-1.773v1.414h10.012V49.672H242.1a1.785,1.785,0,0,1-1.151-.377,1.026,1.026,0,0,1-.32-0.811V22.878ZM256.9,24.613h2.847a1.732,1.732,0,0,1,1.15.349,1.157,1.157,0,0,1,.415.933V48.352a1.226,1.226,0,0,1-.386,1,2.23,2.23,0,0,1-1.386.321H256.9v1.414h12.9a17.64,17.64,0,0,0,5.28-.641,11.778,11.778,0,0,0,4.478-2.6,10.833,10.833,0,0,0,2.724-4.054A18.648,18.648,0,0,0,283.45,37a15.375,15.375,0,0,0-1.951-7.9,11.884,11.884,0,0,0-4.742-4.77,12,12,0,0,0-5.449-1.131H256.9v1.414Zm13.274,0a7.359,7.359,0,0,1,6.26,2.734q2.433,3.243,2.433,10.22a19.775,19.775,0,0,1-1.113,7.391,6.754,6.754,0,0,1-2.376,3.073,9.633,9.633,0,0,1-5.581,1.64h-2.376a2.77,2.77,0,0,1-1.6-.349,1.2,1.2,0,0,1-.472-1.028V26.046a1.358,1.358,0,0,1,.406-1.075,1.856,1.856,0,0,1,1.254-.358h3.167Zm19.138,10.88a9.6,9.6,0,0,0-2.394,6.769,9.6,9.6,0,0,0,2.385,6.75,7.594,7.594,0,0,0,5.817,2.6,8.353,8.353,0,0,0,4.327-1.188,8.089,8.089,0,0,0,3.092-3.234,10.447,10.447,0,0,0,1.085-4.95,9.488,9.488,0,0,0-2.423-6.779,7.9,7.9,0,0,0-5.987-2.574A7.706,7.706,0,0,0,289.314,35.492Zm9.494,0.566q1.349,1.829,1.348,5.921,0,4.412-1.367,6.354a4.185,4.185,0,0,1-3.573,1.942,4.078,4.078,0,0,1-3.479-1.942q-1.347-1.942-1.348-6.147,0-4.129,1.358-6.043a4.1,4.1,0,0,1,3.469-1.914A4.245,4.245,0,0,1,298.808,36.058Zm16.865,13.934a4.662,4.662,0,0,1-3.846-1.949,9.247,9.247,0,0,1-1.508-5.735,10.96,10.96,0,0,1,1.7-6.4,4,4,0,0,1,3.488-1.676,3.419,3.419,0,0,1,2,.517,1.393,1.393,0,0,1,.736,1.062,1.028,1.028,0,0,1-.3.564,2.408,2.408,0,0,0-.641,1.579,1.916,1.916,0,0,0,.585,1.41,1.95,1.95,0,0,0,1.433.583,1.97,1.97,0,0,0,1.5-.688,2.479,2.479,0,0,0,.631-1.744,4.139,4.139,0,0,0-1.7-3.186,6.433,6.433,0,0,0-4.3-1.433,8.243,8.243,0,0,0-6.034,2.574q-2.563,2.574-2.564,7.25a8.939,8.939,0,0,0,2.338,6.467,7.976,7.976,0,0,0,6.015,2.432q5.016,0,6.486-5.411l-1.225-.358q-1.566,4.148-4.79,4.148h0Zm9.682-5.562,0.378,7.033h1l1.378-1.584a7.807,7.807,0,0,0,4.871,1.735,6.813,6.813,0,0,0,4.673-1.621,5.079,5.079,0,0,0,1.841-3.958,4.778,4.778,0,0,0-.85-2.874,4.955,4.955,0,0,0-2.4-1.743,27.074,27.074,0,0,0-4.08-.89,8.252,8.252,0,0,1-3.626-1.19,2.251,2.251,0,0,1-.945-1.848,2.721,2.721,0,0,1,1.02-2.14,4.181,4.181,0,0,1,2.815-.877,5.281,5.281,0,0,1,3.495,1.178,7.967,7.967,0,0,1,2.249,3.856h1.263l-0.491-6.3h-0.774l-1.247,1.32a7.029,7.029,0,0,0-4.267-1.452,5.782,5.782,0,0,0-4.7,2.018,5.413,5.413,0,0,0-1.3,3.526A4.669,4.669,0,0,0,326.289,41a4.5,4.5,0,0,0,1.765,1.716,15.326,15.326,0,0,0,4,1.188,26.9,26.9,0,0,1,3.722.858,2.432,2.432,0,0,1,1.124.886,2.394,2.394,0,0,1,.407,1.386,2.8,2.8,0,0,1-1.1,2.272,4.9,4.9,0,0,1-3.159.9,5.678,5.678,0,0,1-3.742-1.254,10.349,10.349,0,0,1-2.687-4.516h-1.264Z"/>
  <g id="Acorn">
    <path id="D" class="cls-2" d="M43.7,55.315q6.774,0,10.531-1.971a15.08,15.08,0,0,0,6.109-6.109,19.055,19.055,0,0,0,2.353-9.583,19.463,19.463,0,0,0-2.968-10.863,15.774,15.774,0,0,0-8.24-6.4q-3.671-1.305-11.8-1.306H32.17V55.315H43.7ZM35.643,22.626H38.2q7.809,0,11.208,1.034a12.779,12.779,0,0,1,7.07,5.095,15.507,15.507,0,0,1,2.537,8.959,14.736,14.736,0,0,1-2.34,8.455,12.017,12.017,0,0,1-6.429,4.787q-2.907.935-10.42,0.935H35.643V22.626Z"/>
    <path id="_" data-name="{" class="cls-3" d="M17.8,35.922A5.2,5.2,0,0,0,21.8,30.8c0-3.683-1.186-6.554-1.186-10.549,0-4.557,2.185-7.3,7.99-7.366,0.062-.811.062-1.81,0.062-2.622-8.177.062-12.3,4.12-12.3,10.487,0,4.245,1.436,7.366,1.436,10.424,0,2.06-.811,3.808-5.43,3.808,0,0.874,0,1.873.062,2.684,4.619-.125,5.368,2,5.368,4.307,0,3.308-1.56,6.679-1.56,11.048,0,5.805,4.744,9.987,12.234,9.987a18.381,18.381,0,0,0-.062-2.622c-5.306.062-7.927-2.934-7.927-7.241,0-4.182,1.248-6.929,1.248-11.423A5.5,5.5,0,0,0,17.8,36.3V35.922Z"/>
  </g>
</svg>
