<svg xmlns="http://www.w3.org/2000/svg" xmlns:xlink="http://www.w3.org/1999/xlink" width="364" height="125" viewBox="0 0 364 125">
  <metadata><?xpacket begin="﻿" id="W5M0MpCehiHzreSzNTczkc9d"?>
<x:xmpmeta xmlns:x="adobe:ns:meta/" x:xmptk="Adobe XMP Core 5.6-c138 79.159824, 2016/09/14-01:09:01        ">
   <rdf:RDF xmlns:rdf="http://www.w3.org/1999/02/22-rdf-syntax-ns#">
      <rdf:Description rdf:about=""/>
   </rdf:RDF>
</x:xmpmeta>
                                                                                                    
                                                                                                    
                                                                                                    
                                                                                                    
                                                                                                    
                                                                                                    
                                                                                                    
                                                                                                    
                                                                                                    
                                                                                                    
                                                                                                    
                                                                                                    
                                                                                                    
                                                                                                    
                                                                                                    
                                                                                                    
                                                                                                    
                                                                                                    
                                                                                                    
                                                                                                    
                           
<?xpacket end="w"?></metadata>
<defs>
    <style>
      .cls-1 {
        filter: url(#filter);
      }

      .cls-2 {
        fill: #fff;
        fill-rule: evenodd;
      }
    </style>
    <filter id="filter" filterUnits="userSpaceOnUse">
      <feOffset result="offset" dy="2" in="SourceAlpha"/>
      <feGaussianBlur result="blur" stdDeviation="2.236"/>
      <feFlood result="flood" flood-color="#010101" flood-opacity="0.66"/>
      <feComposite result="composite" operator="in" in2="blur"/>
      <feBlend result="blend" in="SourceGraphic"/>
    </filter>
  </defs>
  <g id="Reference" class="cls-1">
    <path id="Reference-2" data-name="Reference" class="cls-2" d="M130.295,83.037h3.611a2.7,2.7,0,0,1,1.743.473,1.735,1.735,0,0,1,.573,1.419v29.434a1.6,1.6,0,0,1-.561,1.3,2.683,2.683,0,0,1-1.755.473h-3.611V118H147.4v-1.868h-3.536a3,3,0,0,1-1.868-.473,1.557,1.557,0,0,1-.473-1.3V99.9h3.013a9.2,9.2,0,0,1,4.109.847,5.749,5.749,0,0,1,2.528,2.241,12.936,12.936,0,0,1,1.182,4.706,39.3,39.3,0,0,0,1.171,7.048,5.547,5.547,0,0,0,2,2.714,5.4,5.4,0,0,0,3.151.922q5.776,0,6.25-8.467h-1.693a9.6,9.6,0,0,1-.81,4A1.818,1.818,0,0,1,161,115.037a1.772,1.772,0,0,1-1.4-.922,13.806,13.806,0,0,1-1.6-4.457,28.3,28.3,0,0,0-1.865-6.039,6.945,6.945,0,0,0-2.148-2.416,17.411,17.411,0,0,0-4.894-1.9,22.068,22.068,0,0,0,7.16-1.631,8.467,8.467,0,0,0,3.486-3.038,7.943,7.943,0,0,0,1.208-4.346,8.139,8.139,0,0,0-3.051-6.6q-3.051-2.515-8.579-2.515H130.295v1.868Zm11.231,1.815a1.5,1.5,0,0,1,.7-1.4,9.354,9.354,0,0,1,3.636-.41,18.591,18.591,0,0,1,5.976.622,4.953,4.953,0,0,1,2.453,2.312,9.545,9.545,0,0,1,.934,4.6q0,4.227-2.478,5.88a12.253,12.253,0,0,1-6.86,1.653h-4.358V84.852Zm46.941,15.866a10.523,10.523,0,0,0-3.711-5.006,9.874,9.874,0,0,0-5.852-1.743,10.032,10.032,0,0,0-7.757,3.5,13.193,13.193,0,0,0-3.15,9.177,12.112,12.112,0,0,0,3.2,8.666,10.417,10.417,0,0,0,7.882,3.386q6.873,0,10.508-7.072l-1.618-.7q-2.964,5.553-7.844,5.553a6.906,6.906,0,0,1-5.454-2.465q-1.868-2.192-1.992-7.521h16.709a17.1,17.1,0,0,0-.921-5.777h0Zm-13.908-2.939a5.4,5.4,0,0,1,4.4-2.316,5.226,5.226,0,0,1,4.022,1.918,6.762,6.762,0,0,1,1.706,4.657,3.343,3.343,0,0,1-.5,2.079,1.7,1.7,0,0,1-1.4.61h-10.11Q172.754,100.1,174.559,97.779Zm26.409-8.293A9.044,9.044,0,0,1,202.42,83.9a4.356,4.356,0,0,1,3.561-1.88,3.216,3.216,0,0,1,1.675.349,0.962,0.962,0,0,1,.558.772,1.663,1.663,0,0,1-.722.9,2.385,2.385,0,0,0-.9,1.918,2.272,2.272,0,0,0,.685,1.693,2.367,2.367,0,0,0,1.73.672,2.5,2.5,0,0,0,1.93-.834,3.259,3.259,0,0,0,.76-2.279,4.522,4.522,0,0,0-1.579-3.586,6.479,6.479,0,0,0-4.388-1.37,7.791,7.791,0,0,0-6.339,3.244q-2.562,3.243-2.561,9.407v1.768H192.8v2.166h4.034V114.29a1.736,1.736,0,0,1-.523,1.394,2.876,2.876,0,0,1-1.843.448H192.5V118H206.8v-1.868h-3.188a3.175,3.175,0,0,1-2.091-.622,2.08,2.08,0,0,1-.548-1.644V96.833H206.8V94.667h-5.827v-5.18Zm29.982,11.231a10.521,10.521,0,0,0-3.71-5.006,9.878,9.878,0,0,0-5.852-1.743,10.03,10.03,0,0,0-7.757,3.5,13.189,13.189,0,0,0-3.151,9.177,12.112,12.112,0,0,0,3.2,8.666,10.419,10.419,0,0,0,7.882,3.386q6.873,0,10.509-7.072l-1.619-.7q-2.964,5.553-7.844,5.553a6.907,6.907,0,0,1-5.454-2.465q-1.868-2.192-1.992-7.521h16.71a17.123,17.123,0,0,0-.922-5.777h0Zm-13.908-2.939a5.407,5.407,0,0,1,4.4-2.316,5.224,5.224,0,0,1,4.021,1.918,6.762,6.762,0,0,1,1.706,4.657,3.336,3.336,0,0,1-.5,2.079,1.7,1.7,0,0,1-1.4.61h-10.11Q215.237,100.1,217.042,97.779Zm18.067-1.345h2.042a2.671,2.671,0,0,1,2.067.784,3.58,3.58,0,0,1,.722,2.478v14.866a1.363,1.363,0,0,1-.6,1.109,2.864,2.864,0,0,1-1.768.46h-2.316V118h14.493v-1.868h-2.963a3.5,3.5,0,0,1-2.042-.448,1.521,1.521,0,0,1-.6-1.3v-5a24.6,24.6,0,0,1,1.5-7.247,10.753,10.753,0,0,1,2.764-4.582,3.664,3.664,0,0,1,2.316-1.2,0.381,0.381,0,0,1,.473.374,2.95,2.95,0,0,1-.374.772,3.154,3.154,0,0,0-.4,1.544,2.867,2.867,0,0,0,.685,2.017,2.331,2.331,0,0,0,1.8.747,2.423,2.423,0,0,0,1.905-.871,3.6,3.6,0,0,0,.76-2.44,4.243,4.243,0,0,0-1.133-3.1,4.044,4.044,0,0,0-3.026-1.158,5.76,5.76,0,0,0-4.682,2.391,20.713,20.713,0,0,0-3.237,7.047V94.243l-8.392.423v1.768Zm43.977,4.283a10.515,10.515,0,0,0-3.71-5.006,9.878,9.878,0,0,0-5.852-1.743,10.03,10.03,0,0,0-7.757,3.5,13.188,13.188,0,0,0-3.15,9.177,12.108,12.108,0,0,0,3.2,8.666A10.416,10.416,0,0,0,269.7,118.7q6.873,0,10.509-7.072l-1.619-.7q-2.963,5.553-7.844,5.553a6.9,6.9,0,0,1-5.453-2.465q-1.869-2.192-1.993-7.521h16.71a17.123,17.123,0,0,0-.922-5.777h0Zm-13.908-2.939a5.407,5.407,0,0,1,4.4-2.316,5.223,5.223,0,0,1,4.021,1.918,6.762,6.762,0,0,1,1.706,4.657,3.336,3.336,0,0,1-.5,2.079,1.7,1.7,0,0,1-1.394.61H263.3Q263.373,100.1,265.178,97.779Zm18.441-1.494h1.195a3.244,3.244,0,0,1,2.328.772,2.986,2.986,0,0,1,.81,2.266v15.066a1.524,1.524,0,0,1-.635,1.245,2.956,2.956,0,0,1-1.856.5h-1.618V118h12.351v-1.868h-1.618a2.822,2.822,0,0,1-1.93-.535,2.355,2.355,0,0,1-.585-1.8V105.15a8.936,8.936,0,0,1,1.88-5.9,5.857,5.857,0,0,1,4.694-2.266,4.649,4.649,0,0,1,4.233,2.241,9.207,9.207,0,0,1,1,4.831v9.986a1.9,1.9,0,0,1-.647,1.568,3.747,3.747,0,0,1-2.291.523h-1.171V118h12.3v-1.868h-1.643a2.773,2.773,0,0,1-1.918-.535,2.389,2.389,0,0,1-.573-1.8V102.436a10.037,10.037,0,0,0-.946-4.408,6.4,6.4,0,0,0-2.515-2.876,7.646,7.646,0,0,0-3.885-.909,9.221,9.221,0,0,0-4.818,1.27,11.079,11.079,0,0,0-3.7,3.81,38.606,38.606,0,0,0-.7-5.13l-7.744.473v1.619Zm42.657,20.271a6.156,6.156,0,0,1-5.08-2.575q-1.992-2.574-1.992-7.573a14.484,14.484,0,0,1,2.241-8.457,5.288,5.288,0,0,1,4.607-2.214,4.521,4.521,0,0,1,2.64.682,1.842,1.842,0,0,1,.971,1.4,1.358,1.358,0,0,1-.4.745,3.176,3.176,0,0,0-.847,2.085,2.528,2.528,0,0,0,.772,1.861,2.657,2.657,0,0,0,3.872-.139,3.276,3.276,0,0,0,.834-2.3,5.47,5.47,0,0,0-2.241-4.208,8.5,8.5,0,0,0-5.677-1.893,10.884,10.884,0,0,0-7.969,3.4q-3.387,3.4-3.387,9.575a11.807,11.807,0,0,0,3.088,8.542,10.534,10.534,0,0,0,7.944,3.212q6.624,0,8.566-7.147l-1.618-.473q-2.068,5.48-6.326,5.479h0Zm32.1-15.838a10.515,10.515,0,0,0-3.71-5.006,9.876,9.876,0,0,0-5.852-1.743,10.03,10.03,0,0,0-7.757,3.5,13.193,13.193,0,0,0-3.15,9.177,12.108,12.108,0,0,0,3.2,8.666,10.416,10.416,0,0,0,7.881,3.386q6.873,0,10.509-7.072l-1.619-.7q-2.963,5.553-7.844,5.553a6.9,6.9,0,0,1-5.453-2.465q-1.869-2.192-1.993-7.521H359.3a17.123,17.123,0,0,0-.922-5.777h0Zm-13.907-2.939a5.4,5.4,0,0,1,4.395-2.316,5.226,5.226,0,0,1,4.022,1.918,6.766,6.766,0,0,1,1.7,4.657,3.336,3.336,0,0,1-.5,2.079,1.7,1.7,0,0,1-1.394.61H342.587Q342.662,100.1,344.468,97.779Z"/>
    <path id="Natural_Docs" data-name="Natural Docs" class="cls-2" d="M4.092,34.037H5.755a4.287,4.287,0,0,1,1.861.349,8.008,8.008,0,0,1,1.765,1.605l0.438,0.48V61.413A5.583,5.583,0,0,1,8.275,65.4a5.81,5.81,0,0,1-4.184,1.728V69H18.137V67.132A6.672,6.672,0,0,1,13.43,65.6a6.026,6.026,0,0,1-1.519-4.5V38.874L34.9,69h2.341V39.74a6.945,6.945,0,0,1,.725-3.163,4.5,4.5,0,0,1,1.7-1.992,6.212,6.212,0,0,1,2.952-.548V32.169h-12.9v1.868a5.319,5.319,0,0,1,3.935,1.444A6.59,6.59,0,0,1,35.1,40.163V61.106L12.882,32.169H4.092v1.868Zm63.75,33.195a1.646,1.646,0,0,1-1.419-.822,4.462,4.462,0,0,1-.548-2.49V51.17a5.539,5.539,0,0,0-2.191-4.408q-2.192-1.793-6.35-1.793a12,12,0,0,0-7.284,2.042q-2.777,2.042-2.777,4.507a2.955,2.955,0,0,0,.834,2.166,2.8,2.8,0,0,0,2.079.847,2.584,2.584,0,0,0,1.893-.71,2.455,2.455,0,0,0,.722-1.83,3.152,3.152,0,0,0-.722-1.768,2.434,2.434,0,0,1-.6-1.17,1.82,1.82,0,0,1,1.121-1.32,7.406,7.406,0,0,1,3.735-.9,5.609,5.609,0,0,1,3.86,1.345,4.177,4.177,0,0,1,1.519,3.237v3.536a30.181,30.181,0,0,0-11.368,3.2q-4.271,2.4-4.271,6.039a4.907,4.907,0,0,0,1.868,3.96A8.375,8.375,0,0,0,53.4,69.7a10.15,10.15,0,0,0,4.308-.834,14.969,14.969,0,0,0,4.159-3.324,7.414,7.414,0,0,0,2.03,3.237,4.436,4.436,0,0,0,2.851.921A5.529,5.529,0,0,0,70.78,67.83l-0.9-1.394a3.464,3.464,0,0,1-2.042.8h0Zm-6.126-7.3a7.723,7.723,0,0,1-2.154,5.591,6.85,6.85,0,0,1-5.093,2.229A3.493,3.493,0,0,1,51.8,66.672a4.2,4.2,0,0,1-1.021-3,5,5,0,0,1,1.967-4.233q2.639-1.967,8.965-2.839v3.337ZM77.42,43.9A6.526,6.526,0,0,1,73.2,46.214v1.743h4.059V63.621a5.513,5.513,0,0,0,1.631,4.146,6.219,6.219,0,0,0,4.52,1.581,6.458,6.458,0,0,0,5.1-2.254q1.967-2.253,2.117-6.91H88.959q-0.2,3.611-1.395,5.18a3.538,3.538,0,0,1-2.889,1.569A3,3,0,0,1,82.335,65.9a4.329,4.329,0,0,1-.921-2.976V47.958h7.545V45.667H81.414V36.154H79.745Q79.57,41.135,77.42,43.9h0Zm15.747,1.768V47.41a6.478,6.478,0,0,1,3.063.548A2.285,2.285,0,0,1,97.3,50V60.135q0,5.005,2.163,7.1a7.23,7.23,0,0,0,5.3,2.117,8.337,8.337,0,0,0,4.276-1.245,16.919,16.919,0,0,0,4.2-3.71l0.5,4.582,7.844-.174V67.132h-1.469a2.915,2.915,0,0,1-2.092-.71,2.666,2.666,0,0,1-.747-2.029V45.243l-8.193.423V47.41a6.1,6.1,0,0,1,3.3.735A2.206,2.206,0,0,1,113.239,50V58.74a8.313,8.313,0,0,1-1.951,5.64,6.042,6.042,0,0,1-4.734,2.254,4.8,4.8,0,0,1-3.69-1.544,6.214,6.214,0,0,1-1.429-4.383V45.243Zm31.054,1.768h2.042a2.671,2.671,0,0,1,2.067.784,3.58,3.58,0,0,1,.722,2.478V65.564a1.362,1.362,0,0,1-.6,1.108,2.861,2.861,0,0,1-1.768.461H124.37V69h14.493V67.132H135.9a3.5,3.5,0,0,1-2.042-.448,1.519,1.519,0,0,1-.6-1.295V60.384a24.623,24.623,0,0,1,1.494-7.247,10.762,10.762,0,0,1,2.765-4.582,3.664,3.664,0,0,1,2.315-1.2,0.381,0.381,0,0,1,.474.373,2.95,2.95,0,0,1-.374.772,3.143,3.143,0,0,0-.4,1.544,2.872,2.872,0,0,0,.684,2.017,2.335,2.335,0,0,0,1.806.747,2.422,2.422,0,0,0,1.905-.872,3.6,3.6,0,0,0,.759-2.44,4.239,4.239,0,0,0-1.133-3.1,4.04,4.04,0,0,0-3.025-1.158,5.76,5.76,0,0,0-4.682,2.391,20.712,20.712,0,0,0-3.237,7.047V45.243l-8.392.423v1.768Zm45.621,19.8a1.647,1.647,0,0,1-1.42-.822,4.466,4.466,0,0,1-.547-2.49V51.17a5.539,5.539,0,0,0-2.192-4.408q-2.191-1.793-6.35-1.793a12,12,0,0,0-7.284,2.042q-2.776,2.042-2.777,4.507a2.954,2.954,0,0,0,.835,2.166,2.8,2.8,0,0,0,2.079.847,2.586,2.586,0,0,0,1.893-.71,2.456,2.456,0,0,0,.722-1.83,3.154,3.154,0,0,0-.722-1.768,2.43,2.43,0,0,1-.6-1.17,1.819,1.819,0,0,1,1.121-1.32,7.4,7.4,0,0,1,3.735-.9,5.61,5.61,0,0,1,3.86,1.345,4.179,4.179,0,0,1,1.519,3.237v3.536a30.178,30.178,0,0,0-11.368,3.2q-4.272,2.4-4.271,6.039a4.907,4.907,0,0,0,1.868,3.96A8.374,8.374,0,0,0,155.4,69.7a10.155,10.155,0,0,0,4.309-.834,14.968,14.968,0,0,0,4.158-3.324,7.414,7.414,0,0,0,2.03,3.237,4.436,4.436,0,0,0,2.851.921,5.527,5.527,0,0,0,4.034-1.868l-0.9-1.394a3.465,3.465,0,0,1-2.042.8h0Zm-6.126-7.3a7.722,7.722,0,0,1-2.154,5.591,6.851,6.851,0,0,1-5.093,2.229,3.492,3.492,0,0,1-2.664-1.083,4.2,4.2,0,0,1-1.021-3,5,5,0,0,1,1.967-4.233q2.638-1.967,8.965-2.839v3.337Zm11.455-27.766v1.868h2.092a3.346,3.346,0,0,1,2.266.8,2.263,2.263,0,0,1,.672,1.818V65.04a2.062,2.062,0,0,1-.56,1.544,2.356,2.356,0,0,1-1.706.548h-2.341V69h13.223V67.132h-2.465a2.353,2.353,0,0,1-1.519-.5,1.353,1.353,0,0,1-.423-1.071V31.746ZM205.9,34.037h3.761a2.293,2.293,0,0,1,1.519.461,1.53,1.53,0,0,1,.548,1.233V65.389a1.618,1.618,0,0,1-.511,1.32,2.943,2.943,0,0,1-1.83.423H205.9V69h17.034a23.289,23.289,0,0,0,6.972-.847,15.551,15.551,0,0,0,5.915-3.436,14.311,14.311,0,0,0,3.6-5.354,24.652,24.652,0,0,0,1.544-8.965,20.3,20.3,0,0,0-2.578-10.434,15.7,15.7,0,0,0-6.262-6.3,15.851,15.851,0,0,0-7.2-1.494H205.9v1.868Zm17.532,0q5.528,0,8.267,3.611,3.213,4.283,3.213,13.5a26.116,26.116,0,0,1-1.47,9.762,8.935,8.935,0,0,1-3.137,4.059,12.725,12.725,0,0,1-7.371,2.166H219.8a3.664,3.664,0,0,1-2.117-.461,1.581,1.581,0,0,1-.622-1.357V35.93a1.8,1.8,0,0,1,.535-1.419,2.452,2.452,0,0,1,1.656-.473h4.184Zm25.276,14.369a12.68,12.68,0,0,0-3.163,8.94,12.677,12.677,0,0,0,3.15,8.915,10.03,10.03,0,0,0,7.682,3.437,11.038,11.038,0,0,0,5.716-1.569,10.7,10.7,0,0,0,4.084-4.271,13.807,13.807,0,0,0,1.431-6.537,12.526,12.526,0,0,0-3.2-8.952,10.424,10.424,0,0,0-7.906-3.4A10.173,10.173,0,0,0,248.708,48.406Zm12.538,0.747q1.781,2.416,1.78,7.819,0,5.827-1.805,8.392a5.529,5.529,0,0,1-4.719,2.565,5.385,5.385,0,0,1-4.595-2.565q-1.781-2.565-1.78-8.118,0-5.454,1.793-7.981a5.413,5.413,0,0,1,4.582-2.528A5.607,5.607,0,0,1,261.246,49.153Zm21.254,18.4a6.156,6.156,0,0,1-5.08-2.574q-1.992-2.574-1.992-7.574a14.483,14.483,0,0,1,2.241-8.457,5.287,5.287,0,0,1,4.607-2.214,4.521,4.521,0,0,1,2.64.683,1.842,1.842,0,0,1,.971,1.4,1.355,1.355,0,0,1-.4.745,3.179,3.179,0,0,0-.846,2.085,2.53,2.53,0,0,0,.772,1.862,2.658,2.658,0,0,0,3.872-.14,3.275,3.275,0,0,0,.834-2.3,5.47,5.47,0,0,0-2.241-4.209,8.5,8.5,0,0,0-5.678-1.893,10.885,10.885,0,0,0-7.969,3.4q-3.387,3.4-3.386,9.575a11.806,11.806,0,0,0,3.088,8.542,10.53,10.53,0,0,0,7.943,3.212q6.624,0,8.567-7.147l-1.619-.473q-2.067,5.479-6.325,5.479h0Zm12.277-7.346,0.5,9.289H296.6l1.82-2.092a10.312,10.312,0,0,0,6.434,2.291,9,9,0,0,0,6.171-2.141,6.706,6.706,0,0,0,2.432-5.227,6.316,6.316,0,0,0-1.122-3.8,6.546,6.546,0,0,0-3.166-2.3,35.83,35.83,0,0,0-5.389-1.175q-3.567-.575-4.789-1.571a2.973,2.973,0,0,1-1.248-2.44,3.591,3.591,0,0,1,1.348-2.827,5.519,5.519,0,0,1,3.718-1.158,6.976,6.976,0,0,1,4.615,1.556,10.523,10.523,0,0,1,2.97,5.093h1.668l-0.648-8.317h-1.023l-1.646,1.743a9.286,9.286,0,0,0-5.636-1.917,7.638,7.638,0,0,0-6.21,2.665,7.153,7.153,0,0,0-1.721,4.657,6.156,6.156,0,0,0,.835,3.138,5.942,5.942,0,0,0,2.331,2.266,20.243,20.243,0,0,0,5.287,1.569,35.571,35.571,0,0,1,4.916,1.133,3.213,3.213,0,0,1,1.484,1.17,3.161,3.161,0,0,1,.537,1.83,3.7,3.7,0,0,1-1.457,3,6.468,6.468,0,0,1-4.171,1.183,7.5,7.5,0,0,1-4.943-1.656q-2.006-1.656-3.549-5.964h-1.668Z"/>
    <path id="The" class="cls-2" d="M48.906,11.625h1.141a13.09,13.09,0,0,1,1.8-5.562,4.5,4.5,0,0,1,3.781-2.141,1.777,1.777,0,0,1,1.156.3,1.112,1.112,0,0,1,.359.9V23.859a0.922,0.922,0,0,1-.281.7,1.139,1.139,0,0,1-.812.266H53.391V26H64.125V24.828H61.8a1.722,1.722,0,0,1-1.078-.266,1,1,0,0,1-.328-0.828V5.266a1.354,1.354,0,0,1,.337-1.031,1.857,1.857,0,0,1,1.245-.312q4.509,0,5.575,7.7h1.078L68.172,2.891H49.406ZM70.016,4.063h1.063a2.018,2.018,0,0,1,1.43.461A1.828,1.828,0,0,1,73,5.922V23.391a1.423,1.423,0,0,1-.375,1.086,1.83,1.83,0,0,1-1.266.351H70.484V26h7.734V24.828h-1.25a1.483,1.483,0,0,1-1.078-.328,1.535,1.535,0,0,1-.328-1.109V17.547a5.147,5.147,0,0,1,.641-2.492A4.6,4.6,0,0,1,77.766,13.3a3.7,3.7,0,0,1,2-.578,2.849,2.849,0,0,1,2.258,1.023,4.229,4.229,0,0,1,.883,2.852v6.953a1.181,1.181,0,0,1-.383.961,2.215,2.215,0,0,1-1.383.32H80.266V26h7.906V24.828h-1.25a1.6,1.6,0,0,1-1.078-.3,1.242,1.242,0,0,1-.344-0.976V16.594a7.4,7.4,0,0,0-.617-3.141,4.114,4.114,0,0,0-1.492-1.859,4.842,4.842,0,0,0-2.531-.672,5.679,5.679,0,0,0-2.812.742,8.32,8.32,0,0,0-2.484,2.242V2.625l-5.547.266V4.063Zm33.078,11.094a6.6,6.6,0,0,0-2.328-3.141,6.2,6.2,0,0,0-3.672-1.094,6.294,6.294,0,0,0-4.867,2.2,8.277,8.277,0,0,0-1.977,5.758,7.6,7.6,0,0,0,2.008,5.438A6.535,6.535,0,0,0,97.2,26.438q4.312,0,6.594-4.437l-1.016-.437q-1.859,3.485-4.922,3.484A4.332,4.332,0,0,1,94.438,23.5q-1.172-1.375-1.25-4.719h10.484a10.753,10.753,0,0,0-.578-3.625h0Zm-8.727-1.844a3.392,3.392,0,0,1,2.758-1.453,3.278,3.278,0,0,1,2.523,1.2,4.241,4.241,0,0,1,1.071,2.922,2.088,2.088,0,0,1-.313,1.3,1.065,1.065,0,0,1-.875.383H93.188A7.216,7.216,0,0,1,94.367,13.313Z"/>
  </g>
</svg>
