<svg xmlns="http://www.w3.org/2000/svg" xmlns:xlink="http://www.w3.org/1999/xlink" width="382" height="82" viewBox="0 0 382 82">
  <metadata><?xpacket begin="﻿" id="W5M0MpCehiHzreSzNTczkc9d"?>
<x:xmpmeta xmlns:x="adobe:ns:meta/" x:xmptk="Adobe XMP Core 5.6-c138 79.159824, 2016/09/14-01:09:01        ">
   <rdf:RDF xmlns:rdf="http://www.w3.org/1999/02/22-rdf-syntax-ns#">
      <rdf:Description rdf:about=""/>
   </rdf:RDF>
</x:xmpmeta>
                                                                                                    
                                                                                                    
                                                                                                    
                                                                                                    
                                                                                                    
                                                                                                    
                                                                                                    
                                                                                                    
                                                                                                    
                                                                                                    
                                                                                                    
                                                                                                    
                                                                                                    
                                                                                                    
                                                                                                    
                                                                                                    
                                                                                                    
                                                                                                    
                                                                                                    
                                                                                                    
                           
<?xpacket end="w"?></metadata>
<defs>
    <style>
      .cls-1 {
        filter: url(#filter);
      }

      .cls-2 {
        fill: #fff;
        fill-rule: evenodd;
      }
    </style>
    <filter id="filter" filterUnits="userSpaceOnUse">
      <feOffset result="offset" dy="2" in="SourceAlpha"/>
      <feGaussianBlur result="blur" stdDeviation="2.236"/>
      <feFlood result="flood" flood-color="#010101" flood-opacity="0.66"/>
      <feComposite result="composite" operator="in" in2="blur"/>
      <feBlend result="blend" in="SourceGraphic"/>
    </filter>
  </defs>
  <g id="Getting_Started" data-name="Getting Started" class="cls-1">
    <path id="with_Natural_Docs" data-name="with Natural Docs" class="cls-2" d="M123.779,62.285a2.012,2.012,0,0,1,1,.227,1.673,1.673,0,0,1,.528.769l4.928,12.129h0.848l3.453-9.6,3.858,9.6h0.864l3.974-11.09a3.506,3.506,0,0,1,.865-1.412,2.909,2.909,0,0,1,1.508-.622V61.274H140.26v1.011a2.946,2.946,0,0,1,1.436.308,0.855,0.855,0,0,1,.381.747,3.557,3.557,0,0,1-.249,1.172l-2.473,6.9-3.12-7.764a1.789,1.789,0,0,1-.132-0.615,0.63,0.63,0,0,1,.286-0.549,1.963,1.963,0,0,1,1.047-.2h0.557V61.274h-6.629v1.011a2.818,2.818,0,0,1,1.494.287,3.885,3.885,0,0,1,.985,1.467l-2.676,7.371-3.094-7.764a1.852,1.852,0,0,1-.147-0.688,0.579,0.579,0,0,1,.249-0.491,1.449,1.449,0,0,1,.835-0.183H129.8V61.274h-6.022v1.011Zm25.94-8.7a1.636,1.636,0,1,0,2.314,2.314,1.564,1.564,0,0,0,.484-1.143,1.608,1.608,0,0,0-.5-1.172,1.59,1.59,0,0,0-1.158-.5A1.57,1.57,0,0,0,149.719,53.584Zm-2.666,8.789h1.128a2.032,2.032,0,0,1,1.391.418,1.57,1.57,0,0,1,.469,1.238v8.643a1.277,1.277,0,0,1-.3.915,1.254,1.254,0,0,1-.945.315h-1.45V75h7.807V73.9H153.6a1.249,1.249,0,0,1-.85-0.293,0.876,0.876,0,0,1-.234-0.689V61.113l-5.464.161v1.1Zm11.962-2.139A3.838,3.838,0,0,1,156.53,61.6v1.025h2.388v9.214a3.245,3.245,0,0,0,.959,2.439,3.66,3.66,0,0,0,2.659.93,3.8,3.8,0,0,0,3-1.326,6.381,6.381,0,0,0,1.245-4.065H165.8a5.645,5.645,0,0,1-.821,3.047,2.08,2.08,0,0,1-1.7.923,1.764,1.764,0,0,1-1.377-.608,2.549,2.549,0,0,1-.542-1.751v-8.8H165.8V61.274h-4.439v-5.6h-0.981a7.727,7.727,0,0,1-1.368,4.556h0Zm9.073-5.8h1a1.89,1.89,0,0,1,1.34.432,1.713,1.713,0,0,1,.462,1.311V72.554a1.332,1.332,0,0,1-.352,1.018,1.714,1.714,0,0,1-1.186.33h-0.821V75h7.251V73.9h-1.172a1.39,1.39,0,0,1-1.01-.308,1.439,1.439,0,0,1-.308-1.04V67.075a4.82,4.82,0,0,1,.6-2.336,4.3,4.3,0,0,1,1.465-1.648,3.463,3.463,0,0,1,1.875-.542,2.67,2.67,0,0,1,2.116.959,3.962,3.962,0,0,1,.828,2.673V72.7a1.108,1.108,0,0,1-.359.9,2.077,2.077,0,0,1-1.3.3H177.7V75h7.412V73.9h-1.171a1.493,1.493,0,0,1-1.011-.286A1.165,1.165,0,0,1,182.6,72.7V66.182a6.928,6.928,0,0,0-.578-2.944,3.858,3.858,0,0,0-1.4-1.743,4.54,4.54,0,0,0-2.373-.63,5.325,5.325,0,0,0-2.637.7,7.806,7.806,0,0,0-2.329,2.1V53.086l-5.2.249v1.1Zm27.261,0h0.978a2.521,2.521,0,0,1,1.095.205,4.714,4.714,0,0,1,1.038.944l0.258,0.283V70.537a3.286,3.286,0,0,1-.908,2.348,3.418,3.418,0,0,1-2.461,1.017V75h8.261V73.9a3.923,3.923,0,0,1-2.768-.9,3.543,3.543,0,0,1-.894-2.646V57.279L213.469,75h1.377V57.788a4.092,4.092,0,0,1,.426-1.86,2.648,2.648,0,0,1,1-1.172,3.657,3.657,0,0,1,1.737-.322v-1.1h-7.588v1.1a3.127,3.127,0,0,1,2.314.85,3.873,3.873,0,0,1,.85,2.754V70.356L200.52,53.335h-5.171v1.1Zm37.5,19.526a0.968,0.968,0,0,1-.835-0.483,2.624,2.624,0,0,1-.323-1.465v-7.5a3.256,3.256,0,0,0-1.289-2.593,5.77,5.77,0,0,0-3.735-1.055,7.062,7.062,0,0,0-4.285,1.2,3.347,3.347,0,0,0-1.633,2.651,1.736,1.736,0,0,0,.491,1.274,1.646,1.646,0,0,0,1.223.5,1.519,1.519,0,0,0,1.113-.418A1.445,1.445,0,0,0,224,65a1.855,1.855,0,0,0-.425-1.04,1.433,1.433,0,0,1-.351-0.689,1.069,1.069,0,0,1,.659-0.776,4.355,4.355,0,0,1,2.2-.527,3.3,3.3,0,0,1,2.271.791,2.458,2.458,0,0,1,.893,1.9v2.08a17.755,17.755,0,0,0-6.687,1.882q-2.512,1.414-2.512,3.552a2.885,2.885,0,0,0,1.1,2.329,4.925,4.925,0,0,0,3.208.908,5.97,5.97,0,0,0,2.534-.491,8.809,8.809,0,0,0,2.446-1.956,4.364,4.364,0,0,0,1.194,1.9,2.61,2.61,0,0,0,1.677.542,3.252,3.252,0,0,0,2.373-1.1l-0.527-.82a2.039,2.039,0,0,1-1.2.469h0Zm-3.6-4.292a4.541,4.541,0,0,1-1.267,3.288,4.03,4.03,0,0,1-3,1.311,2.054,2.054,0,0,1-1.567-.637,2.469,2.469,0,0,1-.6-1.765,2.943,2.943,0,0,1,1.158-2.49,11.877,11.877,0,0,1,5.273-1.67v1.963Zm9.238-9.434A3.84,3.84,0,0,1,236,61.6v1.025h2.388v9.214a3.242,3.242,0,0,0,.959,2.439,3.66,3.66,0,0,0,2.659.93,3.8,3.8,0,0,0,3-1.326,6.387,6.387,0,0,0,1.245-4.065h-0.981a5.645,5.645,0,0,1-.821,3.047,2.081,2.081,0,0,1-1.7.923,1.763,1.763,0,0,1-1.377-.608,2.549,2.549,0,0,1-.542-1.751v-8.8h4.439V61.274h-4.439v-5.6h-0.981a7.727,7.727,0,0,1-1.368,4.556h0Zm9.263,1.04V62.3a3.812,3.812,0,0,1,1.8.322,1.343,1.343,0,0,1,.63,1.2v5.962q0,2.944,1.272,4.175a4.254,4.254,0,0,0,3.115,1.245,4.907,4.907,0,0,0,2.516-.732,9.941,9.941,0,0,0,2.472-2.183l0.293,2.7,4.614-.1V73.9H263.6a1.716,1.716,0,0,1-1.231-.417,1.568,1.568,0,0,1-.439-1.194V61.025l-4.82.249V62.3a3.588,3.588,0,0,1,1.941.432,1.3,1.3,0,0,1,.506,1.091v5.142a4.889,4.889,0,0,1-1.148,3.318,3.552,3.552,0,0,1-2.784,1.326,2.823,2.823,0,0,1-2.171-.908,3.658,3.658,0,0,1-.841-2.578v-9.1Zm18.267,1.04h1.2a1.572,1.572,0,0,1,1.216.461,2.106,2.106,0,0,1,.424,1.458v8.745a0.8,0.8,0,0,1-.351.652,1.682,1.682,0,0,1-1.04.271H266.1V75h8.525V73.9h-1.743a2.058,2.058,0,0,1-1.2-.264,0.893,0.893,0,0,1-.352-0.762V69.932a14.481,14.481,0,0,1,.879-4.263,6.334,6.334,0,0,1,1.626-2.7,2.157,2.157,0,0,1,1.362-.7,0.224,0.224,0,0,1,.279.22,1.752,1.752,0,0,1-.22.454,1.855,1.855,0,0,0-.235.908,1.691,1.691,0,0,0,.4,1.187,1.374,1.374,0,0,0,1.062.439,1.425,1.425,0,0,0,1.121-.513,2.114,2.114,0,0,0,.447-1.436,2.5,2.5,0,0,0-.667-1.824,2.377,2.377,0,0,0-1.78-.681,3.387,3.387,0,0,0-2.753,1.406,12.189,12.189,0,0,0-1.9,4.145V61.025l-4.936.249v1.04ZM292.849,73.96a0.968,0.968,0,0,1-.835-0.483,2.624,2.624,0,0,1-.323-1.465v-7.5a3.256,3.256,0,0,0-1.289-2.593,5.77,5.77,0,0,0-3.735-1.055,7.062,7.062,0,0,0-4.285,1.2,3.347,3.347,0,0,0-1.633,2.651,1.736,1.736,0,0,0,.491,1.274,1.646,1.646,0,0,0,1.223.5,1.519,1.519,0,0,0,1.113-.418A1.445,1.445,0,0,0,284,65a1.855,1.855,0,0,0-.425-1.04,1.433,1.433,0,0,1-.351-0.689,1.069,1.069,0,0,1,.659-0.776,4.355,4.355,0,0,1,2.2-.527,3.3,3.3,0,0,1,2.271.791,2.458,2.458,0,0,1,.893,1.9v2.08a17.755,17.755,0,0,0-6.687,1.882q-2.513,1.414-2.512,3.552a2.885,2.885,0,0,0,1.1,2.329,4.925,4.925,0,0,0,3.208.908,5.97,5.97,0,0,0,2.534-.491,8.809,8.809,0,0,0,2.446-1.956,4.364,4.364,0,0,0,1.194,1.9,2.61,2.61,0,0,0,1.677.542,3.252,3.252,0,0,0,2.373-1.1l-0.527-.82a2.039,2.039,0,0,1-1.2.469h0Zm-3.6-4.292a4.541,4.541,0,0,1-1.267,3.288,4.03,4.03,0,0,1-3,1.311,2.054,2.054,0,0,1-1.567-.637,2.469,2.469,0,0,1-.6-1.765,2.943,2.943,0,0,1,1.158-2.49,11.877,11.877,0,0,1,5.273-1.67v1.963Zm6.738-16.333v1.1h1.231a1.969,1.969,0,0,1,1.333.469,1.33,1.33,0,0,1,.395,1.069v16.7a1.211,1.211,0,0,1-.329.908,1.386,1.386,0,0,1-1,.322h-1.377V75h7.779V73.9h-1.45a1.384,1.384,0,0,1-.894-0.293,0.8,0.8,0,0,1-.249-0.63V53.086Zm18.077,1.1h2.211a1.349,1.349,0,0,1,.894.271,0.9,0.9,0,0,1,.322.725V72.876a0.952,0.952,0,0,1-.3.776,1.731,1.731,0,0,1-1.077.249h-2.05V75h10.019a13.709,13.709,0,0,0,4.1-.5,9.144,9.144,0,0,0,3.479-2.021,8.41,8.41,0,0,0,2.116-3.149,14.487,14.487,0,0,0,.909-5.274,11.943,11.943,0,0,0-1.517-6.138,9.222,9.222,0,0,0-3.684-3.706,9.32,9.32,0,0,0-4.233-.879H314.06v1.1Zm10.312,0a5.716,5.716,0,0,1,4.863,2.124q1.89,2.52,1.89,7.94a15.374,15.374,0,0,1-.864,5.742,5.252,5.252,0,0,1-1.846,2.388,7.485,7.485,0,0,1-4.336,1.274h-1.846a2.154,2.154,0,0,1-1.245-.271,0.931,0.931,0,0,1-.366-0.8V55.547a1.056,1.056,0,0,1,.315-0.835,1.443,1.443,0,0,1,.974-0.278h2.461Zm14.868,8.452a8.356,8.356,0,0,0-.007,10.5,5.9,5.9,0,0,0,4.519,2.022,6.491,6.491,0,0,0,3.362-.923,6.292,6.292,0,0,0,2.4-2.512,8.112,8.112,0,0,0,.842-3.845,7.369,7.369,0,0,0-1.882-5.266,6.133,6.133,0,0,0-4.651-2A5.986,5.986,0,0,0,339.24,62.886Zm7.376,0.44a7.876,7.876,0,0,1,1.047,4.6,8.794,8.794,0,0,1-1.062,4.936,3.252,3.252,0,0,1-2.776,1.509,3.166,3.166,0,0,1-2.7-1.509,8.515,8.515,0,0,1-1.048-4.775,8.231,8.231,0,0,1,1.055-4.695,3.184,3.184,0,0,1,2.695-1.487A3.3,3.3,0,0,1,346.616,63.325Zm12.5,10.825a3.621,3.621,0,0,1-2.988-1.514,7.181,7.181,0,0,1-1.172-4.455,8.518,8.518,0,0,1,1.318-4.974,3.112,3.112,0,0,1,2.71-1.3,2.66,2.66,0,0,1,1.553.4,1.082,1.082,0,0,1,.571.825,0.8,0.8,0,0,1-.234.438,1.869,1.869,0,0,0-.5,1.226,1.488,1.488,0,0,0,.454,1.1,1.564,1.564,0,0,0,2.278-.082,1.927,1.927,0,0,0,.491-1.355,3.218,3.218,0,0,0-1.319-2.476,5,5,0,0,0-3.34-1.113,6.4,6.4,0,0,0-4.687,2,7.633,7.633,0,0,0-1.992,5.632,6.945,6.945,0,0,0,1.816,5.024,6.2,6.2,0,0,0,4.673,1.89q3.9,0,5.039-4.2l-0.952-.278q-1.216,3.223-3.721,3.223h0Zm7.222-4.321,0.293,5.464h0.778l1.07-1.231a6.067,6.067,0,0,0,3.785,1.348,5.293,5.293,0,0,0,3.63-1.259,3.946,3.946,0,0,0,1.43-3.075,3.715,3.715,0,0,0-.66-2.233A3.849,3.849,0,0,0,374.8,67.49a21.062,21.062,0,0,0-3.17-.691,6.407,6.407,0,0,1-2.817-.924,1.748,1.748,0,0,1-.734-1.436,2.112,2.112,0,0,1,.793-1.663,3.246,3.246,0,0,1,2.187-.681,4.105,4.105,0,0,1,2.715.916,6.181,6.181,0,0,1,1.746,3h0.982l-0.381-4.893h-0.6l-0.968,1.025a5.466,5.466,0,0,0-3.316-1.128,4.49,4.49,0,0,0-3.652,1.567,4.207,4.207,0,0,0-1.013,2.739,3.628,3.628,0,0,0,.491,1.846,3.5,3.5,0,0,0,1.371,1.333,11.916,11.916,0,0,0,3.111.923,20.963,20.963,0,0,1,2.891.667,1.89,1.89,0,0,1,.873.688,1.856,1.856,0,0,1,.316,1.077,2.178,2.178,0,0,1-.857,1.765,3.8,3.8,0,0,1-2.454.7,4.412,4.412,0,0,1-2.907-.974,8.04,8.04,0,0,1-2.088-3.508H366.34Z"/>
    <path id="Getting_Started-2" data-name="Getting Started" class="cls-2" d="M24.444,3.352a12.009,12.009,0,0,0-4.207-.743,14.11,14.11,0,0,0-7.653,2.414,17.08,17.08,0,0,0-5.966,6.516,19.469,19.469,0,0,0-2.18,9.281,19.432,19.432,0,0,0,2.168,9.246,15.913,15.913,0,0,0,5.906,6.34,15.463,15.463,0,0,0,8.121,2.25,10.552,10.552,0,0,0,5.5-1.442,12.369,12.369,0,0,0,4.184-4.324q0.914,2.836,1.758,5.93h1.547V25.578a1.607,1.607,0,0,1,.563-1.324,3,3,0,0,1,1.875-.457h1.969V22.156H23.492V23.8h2.93a3.479,3.479,0,0,1,1.957.422,1.377,1.377,0,0,1,.6,1.2v3.258a8.144,8.144,0,0,1-2.236,5.93,8.429,8.429,0,0,1-6.332,2.3,8.827,8.827,0,0,1-5.267-1.6,10.417,10.417,0,0,1-3.523-5,27.677,27.677,0,0,1-1.276-9.415,28.6,28.6,0,0,1,1.276-9.626,10.661,10.661,0,0,1,3.664-5.129,9.063,9.063,0,0,1,5.408-1.71,9.164,9.164,0,0,1,6.977,3.392q2.388,2.667,4.144,8.632h1.523L32.469,2.609H30.9L28.98,6.075A17.651,17.651,0,0,0,24.444,3.352Zm36.2,18.382a9.9,9.9,0,0,0-3.492-4.711,9.3,9.3,0,0,0-5.508-1.641,9.441,9.441,0,0,0-7.3,3.293,12.415,12.415,0,0,0-2.965,8.637,11.4,11.4,0,0,0,3.012,8.156A9.8,9.8,0,0,0,51.8,38.656q6.469,0,9.891-6.656l-1.523-.656q-2.789,5.227-7.383,5.227a6.5,6.5,0,0,1-5.133-2.32q-1.758-2.062-1.875-7.078H61.508a16.109,16.109,0,0,0-.867-5.437h0Zm-13.09-2.766a5.087,5.087,0,0,1,4.137-2.18,4.917,4.917,0,0,1,3.785,1.8,6.364,6.364,0,0,1,1.605,4.383,3.139,3.139,0,0,1-.469,1.957,1.6,1.6,0,0,1-1.312.574H45.781Q45.852,21.149,47.551,18.969Zm20.956-4.594a6.142,6.142,0,0,1-3.976,2.18V18.2h3.82V32.938a5.189,5.189,0,0,0,1.535,3.9,5.853,5.853,0,0,0,4.254,1.488,6.079,6.079,0,0,0,4.8-2.121q1.851-2.121,1.992-6.5h-1.57a9.027,9.027,0,0,1-1.312,4.875,3.33,3.33,0,0,1-2.719,1.477,2.821,2.821,0,0,1-2.2-.973,4.075,4.075,0,0,1-.867-2.8V18.2h7.1V16.039h-7.1V7.086H70.7a12.359,12.359,0,0,1-2.188,7.289h0Zm18.68,0a6.142,6.142,0,0,1-3.976,2.18V18.2h3.82V32.938a5.188,5.188,0,0,0,1.535,3.9,5.853,5.853,0,0,0,4.254,1.488,6.079,6.079,0,0,0,4.8-2.121q1.851-2.121,1.992-6.5h-1.57a9.027,9.027,0,0,1-1.312,4.875,3.33,3.33,0,0,1-2.719,1.477,2.821,2.821,0,0,1-2.2-.973,4.075,4.075,0,0,1-.867-2.8V18.2h7.1V16.039h-7.1V7.086h-1.57a12.36,12.36,0,0,1-2.188,7.289h0ZM106.109,3.734a2.55,2.55,0,0,0-.011,3.691,2.6,2.6,0,0,0,3.715.012,2.5,2.5,0,0,0,.773-1.828,2.567,2.567,0,0,0-.8-1.875A2.523,2.523,0,0,0,106.109,3.734ZM101.844,17.8h1.8a3.255,3.255,0,0,1,2.227.668,2.515,2.515,0,0,1,.75,1.98V34.273a2.044,2.044,0,0,1-.48,1.465,2.006,2.006,0,0,1-1.512.5h-2.32V38h12.492V36.242H112.32a1.994,1.994,0,0,1-1.359-.469,1.4,1.4,0,0,1-.375-1.1V15.781l-8.742.258V17.8Zm15.539-.234h1.125a3.053,3.053,0,0,1,2.191.727,2.811,2.811,0,0,1,.762,2.133V34.6a1.432,1.432,0,0,1-.6,1.172,2.781,2.781,0,0,1-1.746.469h-1.523V38h11.625V36.242H127.7a2.655,2.655,0,0,1-1.816-.5,2.22,2.22,0,0,1-.551-1.7V25.906a8.412,8.412,0,0,1,1.77-5.555,5.512,5.512,0,0,1,4.418-2.133,4.375,4.375,0,0,1,3.984,2.109,8.662,8.662,0,0,1,.938,4.547v9.4a1.786,1.786,0,0,1-.61,1.477,3.526,3.526,0,0,1-2.156.492h-1.1V38h11.578V36.242H142.6a2.608,2.608,0,0,1-1.805-.5,2.247,2.247,0,0,1-.539-1.7V23.352a9.445,9.445,0,0,0-.891-4.149A6.024,6.024,0,0,0,137,16.5a7.193,7.193,0,0,0-3.656-.855,8.681,8.681,0,0,0-4.535,1.2,10.445,10.445,0,0,0-3.481,3.586,36.069,36.069,0,0,0-.656-4.828l-7.289.445v1.523Zm43.2-1.711a10.7,10.7,0,0,0-3.164-.469,9.642,9.642,0,0,0-6.516,2.156,6.77,6.77,0,0,0-2.507,5.344,6.434,6.434,0,0,0,1.007,3.574,8.179,8.179,0,0,0,3,2.66,7.438,7.438,0,0,0-3.293,1.91,3.906,3.906,0,0,0-.949,2.613,3.548,3.548,0,0,0,1.172,2.707A7.747,7.747,0,0,0,152.82,38a8.443,8.443,0,0,0-4.136,1.711,3.414,3.414,0,0,0-1.231,2.531,4.1,4.1,0,0,0,1.922,3.258q2.438,1.851,7.477,1.852,6.093,0,9.164-2.719a6.043,6.043,0,0,0,2.2-4.734,4.768,4.768,0,0,0-1.934-4.02q-1.933-1.464-6.316-1.465l-5.789.117a5.3,5.3,0,0,1-2.742-.492,1.6,1.6,0,0,1-.727-1.406,1.92,1.92,0,0,1,.891-1.711,7.638,7.638,0,0,1,3.609-.562h2.555a9.444,9.444,0,0,0,4.371-1.2,8.263,8.263,0,0,0,3.269-2.754,6.587,6.587,0,0,0,.985-3.6,6.323,6.323,0,0,0-.375-2.191,10.412,10.412,0,0,0-1.383-2.4,2.529,2.529,0,0,1,1.734-1.055,0.741,0.741,0,0,1,.633.7,1.868,1.868,0,0,0,1.805,1.641,1.622,1.622,0,0,0,1.23-.574,2.048,2.048,0,0,0,.528-1.441,2.45,2.45,0,0,0-.774-1.828,2.682,2.682,0,0,0-1.945-.75q-1.969,0-4.313,2.367A11.179,11.179,0,0,0,160.578,15.852Zm0.246,2.625a6.428,6.428,0,0,1,1.371,4.336,6.8,6.8,0,0,1-1.347,4.535,4.538,4.538,0,0,1-6.926-.047,6.956,6.956,0,0,1-1.359-4.582,6.271,6.271,0,0,1,1.359-4.3A4.589,4.589,0,0,1,160.824,18.477Zm1.981,19.98a3.91,3.91,0,0,1,2.015,1.266,2.9,2.9,0,0,1,.633,1.793q0,1.64-2.039,2.977a11.172,11.172,0,0,1-6.07,1.336,9.351,9.351,0,0,1-5.2-1.219,2.856,2.856,0,0,1-1.383-2.508,3.427,3.427,0,0,1,1.84-2.883q1.839-1.2,6.152-1.2A14.366,14.366,0,0,1,162.805,38.457ZM202.367,3.383a11.239,11.239,0,0,0-4.148-.773,9.992,9.992,0,0,0-10.383,10.406,8.244,8.244,0,0,0,2.93,6.774q2.085,1.688,7.828,3.047A40.263,40.263,0,0,1,205.6,24.91a6.219,6.219,0,0,1,2.6,2.109,5.208,5.208,0,0,1,.82,2.918,6.567,6.567,0,0,1-2.191,4.98,7.951,7.951,0,0,1-5.66,2.051,10.984,10.984,0,0,1-7.711-3.211,15.258,15.258,0,0,1-4.406-8.766h-1.688v13.43h1.688l2.648-3.234a13.7,13.7,0,0,0,9.328,3.469,11.16,11.16,0,0,0,8.145-3.082,10.412,10.412,0,0,0,3.152-7.769,8.364,8.364,0,0,0-4.629-7.828,32.935,32.935,0,0,0-8.123-2.548,24.912,24.912,0,0,1-5.613-1.672,5.521,5.521,0,0,1-2.237-2.041,5.583,5.583,0,0,1-.749-2.921,5.982,5.982,0,0,1,1.968-4.527,7.089,7.089,0,0,1,5.063-1.853,9.3,9.3,0,0,1,6.551,2.672q2.847,2.672,4.3,8.484h1.547l-0.14-12.633h-1.711l-2.11,3.023A14.634,14.634,0,0,0,202.367,3.383Zm17.289,10.992a6.142,6.142,0,0,1-3.976,2.18V18.2h3.82V32.938a5.191,5.191,0,0,0,1.535,3.9,5.852,5.852,0,0,0,4.254,1.488,6.08,6.08,0,0,0,4.805-2.121q1.851-2.121,1.992-6.5h-1.57a9.032,9.032,0,0,1-1.313,4.875,3.33,3.33,0,0,1-2.719,1.477,2.822,2.822,0,0,1-2.2-.973,4.076,4.076,0,0,1-.867-2.8V18.2h7.1V16.039h-7.1V7.086h-1.57a12.366,12.366,0,0,1-2.188,7.289h0Zm36.36,21.961a1.549,1.549,0,0,1-1.336-.773,4.2,4.2,0,0,1-.516-2.344v-12A5.215,5.215,0,0,0,252.1,17.07a9.238,9.238,0,0,0-5.977-1.687A11.3,11.3,0,0,0,239.27,17.3q-2.615,1.922-2.614,4.242a2.784,2.784,0,0,0,.785,2.039,2.637,2.637,0,0,0,1.957.8,2.434,2.434,0,0,0,1.782-.668,2.31,2.31,0,0,0,.679-1.723,2.965,2.965,0,0,0-.679-1.664,2.294,2.294,0,0,1-.563-1.1,1.714,1.714,0,0,1,1.055-1.242,6.97,6.97,0,0,1,3.516-.844,5.277,5.277,0,0,1,3.632,1.266,3.931,3.931,0,0,1,1.43,3.047v3.328a28.4,28.4,0,0,0-10.7,3.012q-4.02,2.262-4.02,5.684a4.618,4.618,0,0,0,1.758,3.727,7.883,7.883,0,0,0,5.133,1.453,9.556,9.556,0,0,0,4.055-.785,14.1,14.1,0,0,0,3.914-3.129,6.966,6.966,0,0,0,1.91,3.047,4.175,4.175,0,0,0,2.683.867,5.2,5.2,0,0,0,3.8-1.758l-0.843-1.312a3.261,3.261,0,0,1-1.922.75h0Zm-5.766-6.867a7.27,7.27,0,0,1-2.027,5.262,6.449,6.449,0,0,1-4.793,2.1,3.286,3.286,0,0,1-2.508-1.02,3.952,3.952,0,0,1-.961-2.824A4.708,4.708,0,0,1,241.813,29q2.484-1.851,8.437-2.672v3.141ZM261.078,17.7H263a2.511,2.511,0,0,1,1.945.738,3.368,3.368,0,0,1,.68,2.332V34.766a1.282,1.282,0,0,1-.562,1.043,2.7,2.7,0,0,1-1.665.434h-2.179V38h13.64V36.242H272.07a3.3,3.3,0,0,1-1.922-.422,1.43,1.43,0,0,1-.562-1.219V29.891a23.187,23.187,0,0,1,1.406-6.82,10.137,10.137,0,0,1,2.6-4.312,3.448,3.448,0,0,1,2.179-1.125,0.359,0.359,0,0,1,.446.352,2.754,2.754,0,0,1-.352.726,2.963,2.963,0,0,0-.375,1.453,2.7,2.7,0,0,0,.645,1.9,2.194,2.194,0,0,0,1.7.7,2.28,2.28,0,0,0,1.793-.82,3.386,3.386,0,0,0,.715-2.3,3.992,3.992,0,0,0-1.067-2.918,3.8,3.8,0,0,0-2.847-1.09,5.423,5.423,0,0,0-4.407,2.25,19.5,19.5,0,0,0-3.046,6.633V15.641l-7.9.4V17.7Zm25.257-3.328a6.14,6.14,0,0,1-3.976,2.18V18.2h3.821V32.938a5.187,5.187,0,0,0,1.535,3.9,5.852,5.852,0,0,0,4.254,1.488,6.076,6.076,0,0,0,4.8-2.121q1.852-2.121,1.993-6.5H297.2a9.024,9.024,0,0,1-1.312,4.875,3.331,3.331,0,0,1-2.719,1.477,2.821,2.821,0,0,1-2.2-.973,4.076,4.076,0,0,1-.867-2.8V18.2h7.1V16.039h-7.1V7.086h-1.571a12.352,12.352,0,0,1-2.188,7.289h0Zm34.813,7.359a9.9,9.9,0,0,0-3.492-4.711,9.3,9.3,0,0,0-5.508-1.641,9.44,9.44,0,0,0-7.3,3.293,12.415,12.415,0,0,0-2.965,8.637,11.4,11.4,0,0,0,3.012,8.156,9.8,9.8,0,0,0,7.418,3.188q6.468,0,9.89-6.656l-1.523-.656q-2.79,5.227-7.383,5.227a6.5,6.5,0,0,1-5.133-2.32q-1.758-2.062-1.875-7.078h15.727a16.115,16.115,0,0,0-.868-5.437h0Zm-13.089-2.766a5.085,5.085,0,0,1,4.136-2.18,4.916,4.916,0,0,1,3.785,1.8,6.359,6.359,0,0,1,1.606,4.383,3.135,3.135,0,0,1-.469,1.957,1.6,1.6,0,0,1-1.312.574h-9.516Q306.36,21.149,308.059,18.969Zm29.8-13.875h1.571a3.966,3.966,0,0,1,2.379.574,1.85,1.85,0,0,1,.761,1.559v12.4a9.016,9.016,0,0,0-2.918-3.187,6.957,6.957,0,0,0-3.785-1.055,8.449,8.449,0,0,0-6.094,2.6,11.944,11.944,0,0,0-3.375,8.906,12.475,12.475,0,0,0,2.637,8.3,8.061,8.061,0,0,0,6.387,3.141,7.033,7.033,0,0,0,4.019-1.207,10.223,10.223,0,0,0,3.129-3.6L343.133,38h7.5V36.242h-1.524a2.547,2.547,0,0,1-2-.75,3.753,3.753,0,0,1-.667-2.508V2.938l-8.579.4V5.094Zm2.813,14.484a11.314,11.314,0,0,1,1.945,7.008q0,4.711-1.816,7.16A5.324,5.324,0,0,1,336.43,36.2,4.593,4.593,0,0,1,332.516,34q-1.524-2.191-1.524-7.559,0-4.945,1.488-7.031a4.691,4.691,0,0,1,4.02-2.086,5.052,5.052,0,0,1,4.172,2.25h0Z"/>
  </g>
</svg>
