<svg xmlns="http://www.w3.org/2000/svg" xmlns:xlink="http://www.w3.org/1999/xlink" width="360" height="78" viewBox="0 0 360 78">
  <metadata><?xpacket begin="﻿" id="W5M0MpCehiHzreSzNTczkc9d"?>
<x:xmpmeta xmlns:x="adobe:ns:meta/" x:xmptk="Adobe XMP Core 5.6-c138 79.159824, 2016/09/14-01:09:01        ">
   <rdf:RDF xmlns:rdf="http://www.w3.org/1999/02/22-rdf-syntax-ns#">
      <rdf:Description rdf:about=""/>
   </rdf:RDF>
</x:xmpmeta>
                                                                                                    
                                                                                                    
                                                                                                    
                                                                                                    
                                                                                                    
                                                                                                    
                                                                                                    
                                                                                                    
                                                                                                    
                                                                                                    
                                                                                                    
                                                                                                    
                                                                                                    
                                                                                                    
                                                                                                    
                                                                                                    
                                                                                                    
                                                                                                    
                                                                                                    
                                                                                                    
                           
<?xpacket end="w"?></metadata>
<defs>
    <style>
      .cls-1 {
        filter: url(#filter);
      }

      .cls-2 {
        fill: #fff;
        fill-rule: evenodd;
      }
    </style>
    <filter id="filter" filterUnits="userSpaceOnUse">
      <feOffset result="offset" dy="2" in="SourceAlpha"/>
      <feGaussianBlur result="blur" stdDeviation="2.236"/>
      <feFlood result="flood" flood-color="#010101" flood-opacity="0.66"/>
      <feComposite result="composite" operator="in" in2="blur"/>
      <feBlend result="blend" in="SourceGraphic"/>
    </filter>
  </defs>
  <g id="What_s_New_in_2.0" data-name="What&apos;s New in 2.0" class="cls-1">
    <path id="_2.0" data-name="2.0" class="cls-2" d="M294.275,60.748l7.466-6.287a36.5,36.5,0,0,0,5.006-5.183,13.2,13.2,0,0,0,2.149-3.767,11.473,11.473,0,0,0,.736-3.965,9.781,9.781,0,0,0-1.473-5.225,10.574,10.574,0,0,0-4.4-3.866,13.964,13.964,0,0,0-6.358-1.473A14.133,14.133,0,0,0,290.94,32.5a10.955,10.955,0,0,0-4.488,3.88,9.663,9.663,0,0,0-1.487,5.253,6.4,6.4,0,0,0,1.3,4.177,3.829,3.829,0,0,0,3.03,1.6,3.363,3.363,0,0,0,2.464-.949,3.222,3.222,0,0,0,.963-2.393q0-2.662-2.861-3.342a3.149,3.149,0,0,1-1.472-.651A1.455,1.455,0,0,1,288.023,39q0-2.067,2.436-3.908a10.146,10.146,0,0,1,6.287-1.841,7.092,7.092,0,0,1,5.353,2,7.566,7.566,0,0,1,1.925,5.48,14.112,14.112,0,0,1-.906,4.659,21.324,21.324,0,0,1-2.889,5.31q-1.387,1.926-8.269,9.4l-8.241,9.374V71H309.08L310,59.247h-1.954q-1.158,5.013-2.061,6.117a3.7,3.7,0,0,1-3.022,1.1q-14.118,0-12.817-1.671a29.136,29.136,0,0,1,4.129-4.05h0Zm23.443,5.1a3.523,3.523,0,0,0,0,4.928,3.4,3.4,0,0,0,4.857,0,3.439,3.439,0,0,0,.992-2.492,3.372,3.372,0,0,0-.992-2.436,3.232,3.232,0,0,0-2.407-1.019A3.31,3.31,0,0,0,317.718,65.846Zm14.73-30.161q-4.276,5.862-4.277,15.774,0,10.422,4.532,15.944a11.254,11.254,0,0,0,9.034,4.39q5.607,0,9.572-5.225t3.965-15.222q0-10.761-4.56-16.058a11.616,11.616,0,0,0-9.2-4.3,10.688,10.688,0,0,0-9.062,4.7h0Zm15.1,1.1q2.208,3.767,2.209,14.868,0,10.734-2.351,14.783a6.23,6.23,0,0,1-5.664,3.4q-3.654,0-5.82-3.682t-2.166-14.7q0-11.271,2.1-14.854a6.473,6.473,0,0,1,5.834-3.582Q345.334,33.023,347.543,36.789Z"/>
    <path id="in_Natural_Docs" data-name="in Natural Docs" class="cls-2" d="M54.384,49.584A1.637,1.637,0,1,0,56.7,51.9a1.562,1.562,0,0,0,.483-1.143,1.6,1.6,0,0,0-.5-1.172,1.588,1.588,0,0,0-1.157-.5A1.572,1.572,0,0,0,54.384,49.584Zm-2.666,8.789h1.128a2.035,2.035,0,0,1,1.392.418,1.572,1.572,0,0,1,.469,1.238v8.643a1.277,1.277,0,0,1-.3.915,1.253,1.253,0,0,1-.945.315h-1.45V71h7.808V69.9H58.266a1.247,1.247,0,0,1-.85-0.293,0.875,0.875,0,0,1-.234-0.689V57.113l-5.464.161v1.1Zm9.712-.146h0.7a1.909,1.909,0,0,1,1.37.454,1.758,1.758,0,0,1,.476,1.333v8.862a0.9,0.9,0,0,1-.373.732,1.74,1.74,0,0,1-1.091.293H61.562V71h7.266V69.9H67.875a1.66,1.66,0,0,1-1.135-.315,1.387,1.387,0,0,1-.344-1.062V63.441A5.257,5.257,0,0,1,67.5,59.97a3.445,3.445,0,0,1,2.761-1.333,2.735,2.735,0,0,1,2.49,1.318,5.416,5.416,0,0,1,.586,2.842v5.874a1.116,1.116,0,0,1-.381.923,2.205,2.205,0,0,1-1.348.308H70.922V71h7.236V69.9H77.191a1.63,1.63,0,0,1-1.128-.315,1.4,1.4,0,0,1-.337-1.062v-6.68a5.906,5.906,0,0,0-.557-2.593,3.763,3.763,0,0,0-1.48-1.692,4.5,4.5,0,0,0-2.285-.535,5.426,5.426,0,0,0-2.834.747A6.523,6.523,0,0,0,66.4,60.014,22.66,22.66,0,0,0,65.985,57l-4.556.278v0.952Zm26.909-7.793h0.978a2.521,2.521,0,0,1,1.095.205,4.71,4.71,0,0,1,1.038.944l0.257,0.283V66.537a3.284,3.284,0,0,1-.908,2.348A3.417,3.417,0,0,1,88.339,69.9V71H96.6V69.9a3.925,3.925,0,0,1-2.769-.9,3.544,3.544,0,0,1-.893-2.646V53.279L106.459,71h1.377V53.788a4.08,4.08,0,0,1,.427-1.86,2.646,2.646,0,0,1,1-1.172A3.657,3.657,0,0,1,111,50.434v-1.1h-7.588v1.1a3.129,3.129,0,0,1,2.315.85,3.877,3.877,0,0,1,.849,2.754V66.356L93.51,49.335H88.339v1.1Zm37.5,19.526A0.969,0.969,0,0,1,125,69.477a2.624,2.624,0,0,1-.322-1.465v-7.5a3.259,3.259,0,0,0-1.289-2.593,5.775,5.775,0,0,0-3.736-1.055,7.058,7.058,0,0,0-4.284,1.2,3.348,3.348,0,0,0-1.634,2.651,1.74,1.74,0,0,0,.491,1.274,1.647,1.647,0,0,0,1.223.5,1.519,1.519,0,0,0,1.113-.417A1.441,1.441,0,0,0,116.991,61a1.848,1.848,0,0,0-.425-1.04,1.433,1.433,0,0,1-.351-0.689,1.072,1.072,0,0,1,.659-0.776,4.357,4.357,0,0,1,2.2-.527,3.3,3.3,0,0,1,2.271.791,2.458,2.458,0,0,1,.893,1.9v2.08a17.755,17.755,0,0,0-6.687,1.882q-2.512,1.414-2.512,3.552a2.885,2.885,0,0,0,1.1,2.329,4.927,4.927,0,0,0,3.208.908,5.97,5.97,0,0,0,2.534-.491,8.809,8.809,0,0,0,2.446-1.956,4.364,4.364,0,0,0,1.194,1.9,2.61,2.61,0,0,0,1.677.542,3.252,3.252,0,0,0,2.373-1.1l-0.527-.82a2.037,2.037,0,0,1-1.2.469h0Zm-3.6-4.292a4.541,4.541,0,0,1-1.267,3.288,4.029,4.029,0,0,1-3,1.311,2.057,2.057,0,0,1-1.568-.637,2.473,2.473,0,0,1-.6-1.765,2.942,2.942,0,0,1,1.157-2.49,11.882,11.882,0,0,1,5.273-1.67v1.963Zm9.238-9.434a3.838,3.838,0,0,1-2.485,1.362v1.025h2.388v9.214a3.245,3.245,0,0,0,.959,2.439,3.66,3.66,0,0,0,2.659.93,3.8,3.8,0,0,0,3-1.326,6.381,6.381,0,0,0,1.245-4.065h-0.981a5.645,5.645,0,0,1-.821,3.047,2.08,2.08,0,0,1-1.7.923,1.764,1.764,0,0,1-1.377-.608,2.549,2.549,0,0,1-.542-1.751v-8.8h4.439V57.274h-4.439v-5.6h-0.981a7.727,7.727,0,0,1-1.368,4.556h0Zm9.263,1.04V58.3a3.809,3.809,0,0,1,1.8.322,1.343,1.343,0,0,1,.63,1.2v5.962q0,2.944,1.272,4.175a4.254,4.254,0,0,0,3.116,1.245,4.907,4.907,0,0,0,2.515-.732,9.941,9.941,0,0,0,2.472-2.183l0.293,2.7,4.614-.1V69.9h-0.864a1.717,1.717,0,0,1-1.231-.417,1.572,1.572,0,0,1-.439-1.194V57.025l-4.819.249V58.3a3.588,3.588,0,0,1,1.941.432,1.3,1.3,0,0,1,.5,1.091v5.142a4.889,4.889,0,0,1-1.148,3.318,3.552,3.552,0,0,1-2.784,1.326,2.823,2.823,0,0,1-2.171-.908,3.658,3.658,0,0,1-.84-2.578v-9.1ZM159,58.315h1.2a1.571,1.571,0,0,1,1.216.461,2.105,2.105,0,0,1,.425,1.458v8.745a0.8,0.8,0,0,1-.352.652,1.682,1.682,0,0,1-1.04.271h-1.362V71h8.525V69.9h-1.743a2.06,2.06,0,0,1-1.2-.264,0.9,0.9,0,0,1-.352-0.762V65.932a14.481,14.481,0,0,1,.879-4.263,6.334,6.334,0,0,1,1.626-2.7,2.157,2.157,0,0,1,1.363-.7,0.224,0.224,0,0,1,.278.22,1.715,1.715,0,0,1-.22.454,1.854,1.854,0,0,0-.234.908,1.686,1.686,0,0,0,.4,1.187,1.371,1.371,0,0,0,1.062.439,1.423,1.423,0,0,0,1.12-.513,2.114,2.114,0,0,0,.447-1.436,2.493,2.493,0,0,0-.667-1.824,2.375,2.375,0,0,0-1.779-.681,3.388,3.388,0,0,0-2.754,1.406,12.189,12.189,0,0,0-1.905,4.145V57.025L159,57.274v1.04ZM185.839,69.96A0.969,0.969,0,0,1,185,69.477a2.624,2.624,0,0,1-.322-1.465v-7.5a3.259,3.259,0,0,0-1.289-2.593,5.775,5.775,0,0,0-3.736-1.055,7.058,7.058,0,0,0-4.284,1.2,3.348,3.348,0,0,0-1.634,2.651,1.74,1.74,0,0,0,.491,1.274,1.647,1.647,0,0,0,1.223.5,1.519,1.519,0,0,0,1.113-.417A1.441,1.441,0,0,0,176.991,61a1.848,1.848,0,0,0-.425-1.04,1.433,1.433,0,0,1-.351-0.689,1.072,1.072,0,0,1,.659-0.776,4.357,4.357,0,0,1,2.2-.527,3.3,3.3,0,0,1,2.271.791,2.458,2.458,0,0,1,.893,1.9v2.08a17.755,17.755,0,0,0-6.687,1.882q-2.513,1.414-2.512,3.552a2.885,2.885,0,0,0,1.1,2.329,4.927,4.927,0,0,0,3.208.908,5.97,5.97,0,0,0,2.534-.491,8.809,8.809,0,0,0,2.446-1.956,4.364,4.364,0,0,0,1.194,1.9,2.61,2.61,0,0,0,1.677.542,3.252,3.252,0,0,0,2.373-1.1l-0.527-.82a2.037,2.037,0,0,1-1.2.469h0Zm-3.6-4.292a4.541,4.541,0,0,1-1.267,3.288,4.029,4.029,0,0,1-2.995,1.311,2.057,2.057,0,0,1-1.568-.637,2.473,2.473,0,0,1-.6-1.765,2.942,2.942,0,0,1,1.157-2.49,11.882,11.882,0,0,1,5.273-1.67v1.963Zm6.739-16.333v1.1h1.23a1.967,1.967,0,0,1,1.333.469,1.33,1.33,0,0,1,.4,1.069v16.7a1.211,1.211,0,0,1-.33.908,1.384,1.384,0,0,1-1,.322h-1.377V71H197V69.9h-1.45a1.384,1.384,0,0,1-.894-0.293,0.8,0.8,0,0,1-.249-0.63V49.086Zm18.076,1.1h2.212a1.346,1.346,0,0,1,.893.271,0.9,0.9,0,0,1,.323.725V68.876a0.952,0.952,0,0,1-.3.776,1.73,1.73,0,0,1-1.076.249H207.05V71h10.019a13.7,13.7,0,0,0,4.1-.5,9.144,9.144,0,0,0,3.479-2.021,8.424,8.424,0,0,0,2.117-3.149,14.508,14.508,0,0,0,.908-5.274,11.952,11.952,0,0,0-1.516-6.138,9.234,9.234,0,0,0-3.684-3.706,9.327,9.327,0,0,0-4.234-.879H207.05v1.1Zm10.312,0a5.72,5.72,0,0,1,4.864,2.124q1.889,2.52,1.889,7.94a15.374,15.374,0,0,1-.864,5.742,5.252,5.252,0,0,1-1.846,2.388,7.483,7.483,0,0,1-4.336,1.274h-1.845a2.154,2.154,0,0,1-1.245-.271,0.929,0.929,0,0,1-.367-0.8V51.547a1.056,1.056,0,0,1,.315-0.835,1.443,1.443,0,0,1,.974-0.278h2.461Zm14.868,8.452a8.356,8.356,0,0,0-.007,10.5,5.9,5.9,0,0,0,4.519,2.022,6.491,6.491,0,0,0,3.362-.923,6.286,6.286,0,0,0,2.4-2.512,8.112,8.112,0,0,0,.843-3.845,7.37,7.37,0,0,0-1.883-5.266,6.133,6.133,0,0,0-4.651-2A5.987,5.987,0,0,0,232.23,58.886Zm7.376,0.44a7.876,7.876,0,0,1,1.047,4.6,8.794,8.794,0,0,1-1.062,4.937,3.252,3.252,0,0,1-2.776,1.509,3.166,3.166,0,0,1-2.7-1.509,8.515,8.515,0,0,1-1.048-4.775,8.231,8.231,0,0,1,1.055-4.695,3.185,3.185,0,0,1,2.695-1.487A3.3,3.3,0,0,1,239.606,59.325Zm12.5,10.825a3.621,3.621,0,0,1-2.988-1.514,7.188,7.188,0,0,1-1.172-4.455,8.518,8.518,0,0,1,1.319-4.974,3.109,3.109,0,0,1,2.71-1.3,2.656,2.656,0,0,1,1.552.4,1.083,1.083,0,0,1,.572.825,0.8,0.8,0,0,1-.235.438,1.869,1.869,0,0,0-.5,1.226,1.488,1.488,0,0,0,.454,1.1,1.564,1.564,0,0,0,2.278-.082,1.927,1.927,0,0,0,.491-1.355,3.218,3.218,0,0,0-1.319-2.476,5,5,0,0,0-3.339-1.113,6.4,6.4,0,0,0-4.688,2,7.633,7.633,0,0,0-1.992,5.632,6.945,6.945,0,0,0,1.816,5.024,6.2,6.2,0,0,0,4.673,1.89q3.9,0,5.039-4.2l-0.952-.278q-1.216,3.223-3.721,3.223h0Zm7.222-4.321,0.294,5.464H260.4l1.07-1.231a6.069,6.069,0,0,0,3.785,1.348,5.29,5.29,0,0,0,3.63-1.259,3.943,3.943,0,0,0,1.43-3.075,3.722,3.722,0,0,0-.659-2.233,3.852,3.852,0,0,0-1.863-1.354,21.069,21.069,0,0,0-3.169-.691,6.412,6.412,0,0,1-2.818-.924,1.75,1.75,0,0,1-.734-1.436,2.112,2.112,0,0,1,.793-1.663,3.246,3.246,0,0,1,2.187-.681,4.105,4.105,0,0,1,2.715.916,6.189,6.189,0,0,1,1.747,3H269.5l-0.381-4.893h-0.6l-0.968,1.025a5.461,5.461,0,0,0-3.315-1.128,4.492,4.492,0,0,0-3.653,1.567,4.207,4.207,0,0,0-1.013,2.739,3.619,3.619,0,0,0,.492,1.846,3.491,3.491,0,0,0,1.37,1.333,11.929,11.929,0,0,0,3.111.923,20.923,20.923,0,0,1,2.891.667,1.9,1.9,0,0,1,.874.688,1.863,1.863,0,0,1,.315,1.077,2.175,2.175,0,0,1-.857,1.765,3.8,3.8,0,0,1-2.453.7,4.412,4.412,0,0,1-2.908-.974,8.04,8.04,0,0,1-2.087-3.508H259.33Z"/>
    <path id="What_s_New" data-name="What’s New" class="cls-2" d="M4.752,4.836a3.537,3.537,0,0,1,2.161.526A4.579,4.579,0,0,1,8.128,7.543l8.948,28.209h1.609L25.658,12.4l7.308,23.352H34.5l7.83-26.1a11.123,11.123,0,0,1,1.15-2.857A4.218,4.218,0,0,1,44.819,5.47,5.484,5.484,0,0,1,46.9,4.836V3.225H36.936V4.836h0.987a2.612,2.612,0,0,1,1.962.677,2.951,2.951,0,0,1,.655,2.116,6.891,6.891,0,0,1-.322,2.02L34.8,27.717,28.217,6.834A2.635,2.635,0,0,1,28.088,6a0.934,0.934,0,0,1,.537-0.87,5.908,5.908,0,0,1,2.34-.29h1.374V3.225H19.082V4.836h1.929a2.977,2.977,0,0,1,2.09.536,12.769,12.769,0,0,1,1.518,3.71L18.942,27.717,12.475,7.543l-0.129-.408a3.93,3.93,0,0,1-.322-1.225,0.868,0.868,0,0,1,.461-0.816,5.376,5.376,0,0,1,2.131-.258h0.749V3.225H4.752V4.836Zm43.334,0h1.461a2.774,2.774,0,0,1,1.966.634,2.514,2.514,0,0,1,.677,1.923v24.02a1.956,1.956,0,0,1-.516,1.493,2.516,2.516,0,0,1-1.74.483h-1.2V35H59.365V33.389H57.647a2.039,2.039,0,0,1-1.482-.451,2.11,2.11,0,0,1-.451-1.525V23.377a7.075,7.075,0,0,1,.881-3.427,6.32,6.32,0,0,1,2.148-2.417,5.081,5.081,0,0,1,2.75-.795,3.917,3.917,0,0,1,3.1,1.407,5.815,5.815,0,0,1,1.214,3.921v9.561a1.624,1.624,0,0,1-.526,1.321,3.045,3.045,0,0,1-1.9.441h-1.2V35H73.051V33.389H71.332a2.194,2.194,0,0,1-1.482-.419,1.709,1.709,0,0,1-.473-1.343V22.066a10.167,10.167,0,0,0-.849-4.318,5.659,5.659,0,0,0-2.052-2.557A6.659,6.659,0,0,0,63,14.268a7.81,7.81,0,0,0-3.867,1.021,11.439,11.439,0,0,0-3.416,3.083V2.859l-7.627.365V4.836Zm46.9,28.639a1.42,1.42,0,0,1-1.225-.709,3.849,3.849,0,0,1-.473-2.148v-11a4.779,4.779,0,0,0-1.891-3.8,8.465,8.465,0,0,0-5.478-1.547,10.356,10.356,0,0,0-6.284,1.762q-2.4,1.762-2.4,3.889a2.549,2.549,0,0,0,.72,1.869,2.415,2.415,0,0,0,1.794.731,2.23,2.23,0,0,0,1.633-.612,2.118,2.118,0,0,0,.623-1.579,2.719,2.719,0,0,0-.623-1.525,2.1,2.1,0,0,1-.516-1.01,1.571,1.571,0,0,1,.967-1.139,6.39,6.39,0,0,1,3.223-.773,4.838,4.838,0,0,1,3.33,1.16A3.6,3.6,0,0,1,89.7,19.832v3.051a26.037,26.037,0,0,0-9.808,2.761q-3.685,2.073-3.685,5.21A4.233,4.233,0,0,0,77.82,34.27,7.226,7.226,0,0,0,82.525,35.6a8.758,8.758,0,0,0,3.717-.72,12.917,12.917,0,0,0,3.588-2.868,6.4,6.4,0,0,0,1.751,2.793,3.827,3.827,0,0,0,2.46.795,4.77,4.77,0,0,0,3.481-1.611l-0.773-1.2a2.989,2.989,0,0,1-1.762.688h0ZM89.7,27.18A6.663,6.663,0,0,1,87.843,32a5.91,5.91,0,0,1-4.394,1.923,3.014,3.014,0,0,1-2.3-.935A3.623,3.623,0,0,1,80.27,30.4a4.317,4.317,0,0,1,1.7-3.652q2.277-1.7,7.734-2.449V27.18ZM103.25,13.344a5.631,5.631,0,0,1-3.644,2v1.5h3.5V30.359a4.754,4.754,0,0,0,1.408,3.577,5.364,5.364,0,0,0,3.9,1.364,5.57,5.57,0,0,0,4.4-1.944q1.7-1.944,1.827-5.962h-1.44a8.281,8.281,0,0,1-1.2,4.469,3.053,3.053,0,0,1-2.492,1.354,2.587,2.587,0,0,1-2.02-.892,3.736,3.736,0,0,1-.8-2.567V16.846h6.51V14.869H106.7V6.662h-1.439a11.334,11.334,0,0,1-2.006,6.682h0Zm18.6-2.5a7.656,7.656,0,0,0,1.235-4.136,4.273,4.273,0,0,0-1.053-2.986,3.2,3.2,0,0,0-2.428-1.16,2.19,2.19,0,0,0-1.665.795,2.721,2.721,0,0,0-.719,1.891,2.335,2.335,0,0,0,.676,1.687,2.18,2.18,0,0,0,1.622.7A3.719,3.719,0,0,0,120.4,7.5l0.215-.043a0.416,0.416,0,0,1,.376.183,1.019,1.019,0,0,1,.118.548,4.88,4.88,0,0,1-1,2.567,12.4,12.4,0,0,1-3.126,3.019l0.688,0.967A13.741,13.741,0,0,0,121.853,10.841Zm3.555,16.575,0.431,8.014h1.14l1.57-1.8A8.9,8.9,0,0,0,134.1,35.6a7.761,7.761,0,0,0,5.324-1.847,5.786,5.786,0,0,0,2.1-4.509,5.451,5.451,0,0,0-.967-3.274,5.653,5.653,0,0,0-2.732-1.986,30.869,30.869,0,0,0-4.649-1.014,9.406,9.406,0,0,1-4.132-1.355,2.564,2.564,0,0,1-1.076-2.105,3.1,3.1,0,0,1,1.162-2.439,4.763,4.763,0,0,1,3.208-1,6.02,6.02,0,0,1,3.982,1.343,9.081,9.081,0,0,1,2.562,4.394h1.439l-0.559-7.176h-0.882l-1.42,1.5a8.013,8.013,0,0,0-4.863-1.654,6.587,6.587,0,0,0-5.357,2.3,6.169,6.169,0,0,0-1.485,4.017,5.317,5.317,0,0,0,.72,2.707,5.123,5.123,0,0,0,2.011,1.955,17.478,17.478,0,0,0,4.562,1.354,30.693,30.693,0,0,1,4.241.978,2.773,2.773,0,0,1,1.28,1.01,2.726,2.726,0,0,1,.463,1.579,3.193,3.193,0,0,1-1.257,2.589,5.576,5.576,0,0,1-3.6,1.02,6.474,6.474,0,0,1-4.265-1.429,11.8,11.8,0,0,1-3.061-5.146h-1.44Zm31.969-22.58h1.435a3.7,3.7,0,0,1,1.606.3,6.925,6.925,0,0,1,1.523,1.385l0.377,0.415V28.454a4.816,4.816,0,0,1-1.332,3.443,5.011,5.011,0,0,1-3.609,1.491V35h12.117V33.389a5.755,5.755,0,0,1-4.06-1.322,5.2,5.2,0,0,1-1.311-3.881V9.009L183.953,35h2.02V9.756a6,6,0,0,1,.625-2.729,3.888,3.888,0,0,1,1.468-1.719,5.358,5.358,0,0,1,2.547-.473V3.225H179.484V4.836a4.589,4.589,0,0,1,3.395,1.246,5.688,5.688,0,0,1,1.246,4.039V28.19L164.961,3.225h-7.584V4.836ZM210.959,20.09a9.074,9.074,0,0,0-3.2-4.318,8.52,8.52,0,0,0-5.049-1.5,8.652,8.652,0,0,0-6.692,3.019A11.381,11.381,0,0,0,193.3,25.2a10.445,10.445,0,0,0,2.761,7.477,8.983,8.983,0,0,0,6.8,2.922q5.931,0,9.067-6.1l-1.4-.6q-2.556,4.791-6.767,4.791a5.956,5.956,0,0,1-4.705-2.127q-1.612-1.89-1.719-6.488h14.416a14.776,14.776,0,0,0-.795-4.984h0Zm-12-2.535a4.663,4.663,0,0,1,3.792-2,4.51,4.51,0,0,1,3.47,1.654,5.832,5.832,0,0,1,1.471,4.018,2.881,2.881,0,0,1-.429,1.794,1.467,1.467,0,0,1-1.2.526h-8.723Q197.4,19.553,198.96,17.555Zm15.613-1.2a2.957,2.957,0,0,1,1.461.333,2.454,2.454,0,0,1,.773,1.127l7.228,17.79h1.243l5.066-14.076L236,35.6h1.267L243.1,19.336a5.129,5.129,0,0,1,1.268-2.072,4.271,4.271,0,0,1,2.212-.913V14.869h-7.833v1.483a4.314,4.314,0,0,1,2.1.451,1.256,1.256,0,0,1,.559,1.1,5.207,5.207,0,0,1-.366,1.719l-3.626,10.119L232.841,18.35a2.627,2.627,0,0,1-.194-0.9,0.927,0.927,0,0,1,.419-0.806,2.888,2.888,0,0,1,1.537-.29h0.816V14.869H225.7v1.483a4.132,4.132,0,0,1,2.191.421,5.7,5.7,0,0,1,1.445,2.152l-3.926,10.811L220.87,18.35a2.709,2.709,0,0,1-.215-1.01,0.848,0.848,0,0,1,.365-0.72,2.123,2.123,0,0,1,1.225-.268h1.16V14.869h-8.832v1.483Z"/>
  </g>
</svg>
